<?xml version="1.0" encoding="UTF-8" standalone="no"?>
<!-- Created with Inkscape (http://www.inkscape.org/) -->

<svg
   width="24"
   height="24"
   viewBox="0 0 6.3499999 6.3500002"
   version="1.1"
   id="svg5"
   inkscape:version="1.1.2 (0a00cf5339, 2022-02-04)"
   sodipodi:docname="chamilo.svg"
   xmlns:inkscape="http://www.inkscape.org/namespaces/inkscape"
   xmlns:sodipodi="http://sodipodi.sourceforge.net/DTD/sodipodi-0.dtd"
   xmlns="http://www.w3.org/2000/svg"
   xmlns:svg="http://www.w3.org/2000/svg">
  <sodipodi:namedview
     id="namedview7"
     pagecolor="#ffffff"
     bordercolor="#666666"
     borderopacity="1.0"
     inkscape:pageshadow="2"
     inkscape:pageopacity="0.0"
     inkscape:pagecheckerboard="0"
     inkscape:document-units="mm"
     showgrid="false"
     units="px"
     width="64px"
     inkscape:zoom="7.2466938"
     inkscape:cx="26.97782"
     inkscape:cy="33.739524"
     inkscape:window-width="1862"
     inkscape:window-height="1016"
     inkscape:window-x="58"
     inkscape:window-y="27"
     inkscape:window-maximized="1"
     inkscape:current-layer="layer1" />
  <defs
     id="defs2" />
  <g
     inkscape:label="Capa 1"
     inkscape:groupmode="layer"
     id="layer1">
    <g
       id="g835"
       transform="scale(0.37500002)">
      <rect
         style="opacity:0;fill:#ececec;stroke-width:0.245886;stroke-linecap:round;stroke-linejoin:round"
         id="rect1091"
         width="16.933332"
         height="16.933332"
         x="2.7755576e-17"
         y="0" />
      <g
         id="g1049"
         style="fill:#b3b3b3"
         transform="matrix(0.2761472,0,0,0.2761472,-0.26622293,-0.63403662)">
        <path
           style="fill:#b3b3b3;stroke-width:0.550335"
           id="path3202"
           inkscape:connector-curvature="0"
           d="m 58.299647,39.425185 c 0,0 0.440915,-0.217302 0.576823,-0.964379 2.23e-4,-0.04402 4.47e-4,-0.08803 6.71e-4,-0.132053 l 6.72e-4,-0.132053 c -0.04046,-0.703405 -0.740216,-1.54277 -1.527496,-2.38203 -0.918937,-0.927967 -1.708226,-1.372169 -1.708226,-1.372169 0,0 -0.386372,-1.848552 -2.04508,-4.406775 -1.61412,-2.558546 -4.415963,-5.254639 -5.959007,-4.471249 -1.543595,0.783387 -0.191346,2.989001 -0.106632,3.649163 0.128529,0.703853 0.782137,1.850565 0.562513,1.849448 -0.263436,-0.04536 -3.57481,-6.34973 -11.940482,-4.633176 -2.157966,0.47213 -4.009929,1.386555 -5.511501,2.565774 l -0.07469,14.685379 c 0.530552,-0.524976 0.75152,-0.787965 0.75152,-0.787965 0,0 0.558485,2.641215 1.608183,3.833959 1.049702,1.192195 2.321484,1.902413 2.721722,1.024624 0.400012,-0.833222 -0.81298,-4.444528 -0.81298,-4.444528 0,0 2.275884,2.209762 2.933174,2.74078 0.657292,0.530467 1.929298,1.196668 2.287063,0.01163 0.31373,-1.18526 -0.600735,-2.992479 -1.346663,-3.303854 -0.701891,-0.311701 -1.14224,-0.31394 -1.14224,-0.31394 0,0 -0.436891,-0.573916 -0.65617,-0.751106 -0.262764,-0.177411 -0.306802,-0.177085 -0.306802,-0.177085 0,0 0.396883,-0.218075 1.628536,-0.167793 1.275138,0.0505 2.286616,0.09967 2.286616,0.09967 0,0 1.135311,1.676286 1.836085,2.207525 0.657066,0.575035 2.365294,1.946654 2.978328,2.520915 0.568996,0.574588 0.919382,0.840482 1.142019,0.357408 0.178599,-0.482747 -0.123161,-1.759176 -0.909993,-2.686471 -0.831091,-0.883501 -1.708229,-1.371618 -2.014237,-1.812812 -0.260976,-0.529002 -0.435103,-0.925506 -0.435103,-0.925506 0,0 1.621604,1.195103 2.015353,1.593274 0.438011,0.353828 3.331845,2.171113 3.814114,2.481147 0.482043,0.354602 0.703337,0.135634 0.703337,0.135634 0,0 0.350388,0.265344 0.483386,0.0905 0.133,-0.175399 0.490765,-1.360435 -0.429291,-2.068314 -0.963864,-0.752671 -1.53398,-1.10717 -1.445462,-1.194758 0.04448,-0.08726 1.010583,0.225234 1.14348,-0.0382 0.08919,-0.21909 -0.04113,-0.571353 -0.172787,-0.66006 -0.0874,-0.133051 0.266224,-0.394815 0.266224,-0.394815 0,0 0.351729,0.0018 1.802558,0.141224 1.45083,0.139435 5.107584,-1.072842 5.85697,-1.333143 0.748836,-0.260304 1.145493,-0.433811 1.145493,-0.433811 z M 30.493425,58.189824 c 3.045166,-1.962606 3.202214,-6.974444 1.536008,-7.95023 -0.482269,-0.310034 -0.964986,-0.532033 -1.49218,-0.66732 l -0.01163,2.286715 c 0.131659,0.08816 0.26309,0.221432 0.349493,0.441415 0.260975,0.529002 0.126068,1.187497 0.126068,1.187497 0,0 -0.03979,-0.835458 -0.345245,-1.276649 -0.04381,-0.04424 -0.08762,-0.08848 -0.131433,-0.132725 z m 0.148477,-29.194138 c -0.661885,0.48084 -1.236693,1.04906 -1.767469,1.618055 l -0.07401,14.552776 c 0.441139,-0.261319 0.838246,-0.523412 1.192314,-0.873211 0.221291,-0.218418 0.397999,-0.437613 0.575032,-0.612238 z m -1.911472,29.93239 c 0.660642,-0.128146 1.277373,-0.389122 1.762995,-0.738252 l 0.03108,-6.111297 c -0.261871,-0.352932 -0.480926,-0.574139 -0.480926,-0.574139 0,0 0.219727,0.08915 0.482043,0.354601 l 0.01163,-2.286715 c -0.571011,-0.178429 -1.186502,-0.269597 -1.758527,-0.14045 l -0.01945,3.825131 v 0 c 0.132553,-0.08736 0.352401,-0.130264 0.262764,0.177412 -0.04493,0.175846 -0.177032,0.174624 -0.265105,0.174727 v 0 l -0.0114,2.242147 c 0.08807,4.48e-4 0.219624,0.0011 0.307918,-0.04245 0,0 -0.08852,0.08759 -0.309137,0.173953 z m 0.144003,-28.314335 c -3.095688,3.237792 -4.479021,7.144024 -4.791187,8.021711 -0.490765,1.360435 -3.638433,6.268475 -3.917401,9.168993 -0.235157,2.94476 -0.31509,10.111158 6.365591,11.112447 0.790856,0.136078 1.538902,0.139333 2.198997,0.01063 l 0.01498,-2.94533 c -0.616831,0.172388 -1.981157,0.341524 -3.511784,-1.42481 -2.055365,-2.384715 -1.023985,-6.248718 0.610366,-7.559869 1.060209,-0.873882 2.074371,-1.352381 2.956428,-1.831551 z m -0.0957,18.817533 -0.01945,3.825131 c -0.132552,0.08736 -0.220622,0.08692 -0.30747,-0.04558 -0.08941,0.263658 0.08606,0.396056 0.305682,0.397173 l -0.0114,2.242148 c -1.408135,0.124344 -3.33721,-1.116342 -2.843537,-3.048455 0.58308,-2.194671 1.643737,-3.156589 2.876182,-3.370415 z" />
        <path
           style="fill:#b3b3b3;stroke-width:0.210509"
           id="rect3215"
           sodipodi:nodetypes="sssssssss"
           inkscape:connector-curvature="0"
           d="m 37.557532,5.8338307 2.797239,-0.090377 c 1.501491,-0.048559 3.557395,1.015723 3.429711,2.937512 L 42.990558,20.631446 c -0.09942,1.498466 -0.749837,2.288211 -1.93796,2.282379 l -3.686903,-0.01875 c -1.502257,-0.0079 -2.129275,-0.961946 -2.227984,-2.460367 L 34.359941,8.6330331 c -0.09829,-1.4988399 1.066652,-2.7302718 3.197591,-2.7992024 z" />
        <path
           style="fill:#b3b3b3;stroke-width:0.22106"
           id="path3223"
           sodipodi:nodetypes="sssssssss"
           inkscape:connector-curvature="0"
           d="m 15.324346,14.066773 2.212344,-1.933952 c 1.187406,-1.037907 3.566116,-1.540532 4.741674,0.105629 l 7.309263,10.237196 c 0.916416,1.28371 0.9138,2.357779 -0.05552,3.143051 l -3.007794,2.436976 c -1.225745,0.992724 -2.370207,0.634567 -3.447566,-0.517336 l -8.486982,-9.071152 c -1.077703,-1.151624 -0.950976,-2.927362 0.734581,-4.400412 z" />
        <path
           style="fill:#b3b3b3;stroke-width:0.208695"
           id="path3227"
           sodipodi:nodetypes="sssssssss"
           inkscape:connector-curvature="0"
           d="M 4.7173095,35.247814 5.2021057,32.51678 c 0.260114,-1.46565 1.7134837,-3.241585 3.5524778,-2.724424 l 11.4346215,3.215427 c 1.433574,0.403033 2.066842,1.195334 1.818033,2.346199 l -0.772766,3.57136 c -0.314851,1.455096 -1.369148,1.867367 -2.843474,1.65662 L 6.779425,38.920615 C 5.3051434,38.709663 4.3481919,37.327771 4.7173095,35.247814 Z" />
        <path
           style="fill:#b3b3b3;stroke-width:0.164796"
           id="path3231"
           sodipodi:nodetypes="sssssssss"
           inkscape:connector-curvature="0"
           d="M 6.3738268,55.105242 5.294444,53.19937 C 4.715095,52.176137 4.7060655,50.364401 6.0854111,49.754629 L 14.663164,45.96102 c 1.07552,-0.475353 1.859631,-0.312115 2.287355,0.513696 l 1.327048,2.562148 c 0.540641,1.043822 0.106752,1.825172 -0.896795,2.438052 L 9.4775606,56.303534 C 8.4738676,56.91649 7.1961526,56.55674 6.3738268,55.105242 Z" />
      </g>
    </g>
  </g>
</svg>
