<?xml version="1.0" encoding="UTF-8" standalone="no"?>
<!-- Created with Inkscape (http://www.inkscape.org/) -->

<svg
   width="350"
   height="730"
   viewBox="0 0 92.604165 193.14584"
   version="1.1"
   id="svg2150"
   inkscape:version="1.1.2 (0a00cf5339, 2022-02-04)"
   sodipodi:docname="login.svg"
   xmlns:inkscape="http://www.inkscape.org/namespaces/inkscape"
   xmlns:sodipodi="http://sodipodi.sourceforge.net/DTD/sodipodi-0.dtd"
   xmlns="http://www.w3.org/2000/svg"
   xmlns:svg="http://www.w3.org/2000/svg">
  <sodipodi:namedview
     id="namedview2152"
     pagecolor="#ffffff"
     bordercolor="#666666"
     borderopacity="1.0"
     inkscape:pageshadow="2"
     inkscape:pageopacity="0.0"
     inkscape:pagecheckerboard="0"
     inkscape:document-units="mm"
     showgrid="false"
     units="px"
     inkscape:zoom="0.64052329"
     inkscape:cx="397.33138"
     inkscape:cy="436.36196"
     inkscape:window-width="1862"
     inkscape:window-height="1016"
     inkscape:window-x="58"
     inkscape:window-y="27"
     inkscape:window-maximized="1"
     inkscape:current-layer="layer1" />
  <defs
     id="defs2147">
    <clipPath
       clipPathUnits="userSpaceOnUse"
       id="clipPath1668">
      <path
         d="M 0,1050 H 500 V 0 H 0 Z"
         id="path1666" />
    </clipPath>
    <clipPath
       clipPathUnits="userSpaceOnUse"
       id="clipPath1676">
      <path
         d="M 32.7806,69.2575 H 460.549 V 30.0853 H 32.7806 Z"
         id="path1674" />
    </clipPath>
  </defs>
  <g
     inkscape:label="Capa 1"
     inkscape:groupmode="layer"
     id="layer1">
    <g
       id="g1664"
       clip-path="url(#clipPath1668)"
       transform="matrix(0.19556426,0,0,-0.19513047,-2.5889264,199.01641)">
      <g
         id="g1670">
        <g
           id="g1672" />
        <g
           id="g1684">
          <g
             clip-path="url(#clipPath1676)"
             opacity="0.100006"
             id="g1682">
            <g
               transform="translate(460.549,49.6714)"
               id="g1680">
              <path
                 d="m 0,0 c 0,-10.817 -95.759,-19.586 -213.884,-19.586 -118.125,0 -213.884,8.769 -213.884,19.586 0,10.817 95.759,19.586 213.884,19.586 C -95.759,19.586 0,10.817 0,0"
                 style="fill:#000000;fill-opacity:1;fill-rule:nonzero;stroke:none"
                 id="path1678" />
            </g>
          </g>
        </g>
      </g>
      <g
         id="g1686"
         transform="translate(76.3432,42.4472)">
        <path
           d="m 0,0 c -0.2,0 -0.401,0.014 -0.605,0.041 -2.411,0.331 -4.097,2.555 -3.766,4.965 l 50.582,368.361 c 0.331,2.412 2.545,4.096 4.966,3.767 2.411,-0.331 4.097,-2.555 3.766,-4.965 L 4.361,3.808 C 4.058,1.599 2.168,0 0,0"
           style="fill:#514557;fill-opacity:1;fill-rule:nonzero;stroke:none"
           id="path1688" />
      </g>
      <g
         id="g1690"
         transform="translate(322.5978,42.4472)">
        <path
           d="m 0,0 c -2.168,0 -4.058,1.599 -4.361,3.808 l -50.582,368.361 c -0.331,2.41 1.355,4.634 3.766,4.965 2.428,0.33 4.634,-1.355 4.966,-3.767 L 4.371,5.006 C 4.702,2.596 3.016,0.372 0.605,0.041 0.401,0.014 0.199,0 0,0"
           style="fill:#514557;fill-opacity:1;fill-rule:nonzero;stroke:none"
           id="path1692" />
      </g>
      <g
         id="g1694"
         transform="translate(199.4705,42.4472)">
        <path
           d="m 0,0 c -2.434,0 -4.407,1.973 -4.407,4.407 v 368.361 c 0,2.434 1.973,4.407 4.407,4.407 2.434,0 4.407,-1.973 4.407,-4.407 V 4.407 C 4.407,1.973 2.434,0 0,0"
           style="fill:#514557;fill-opacity:1;fill-rule:nonzero;stroke:none"
           id="path1696" />
      </g>
      <g
         id="g1698"
         transform="translate(304.7874,404.8202)">
        <path
           d="m 0,0 h -210.636 c -5.425,0 -9.266,5.302 -7.574,10.457 l 3.026,9.219 c 1.776,5.413 6.829,9.073 12.527,9.073 H -8.593 c 5.417,0 10.282,-3.313 12.267,-8.353 L 7.417,10.892 C 9.477,5.662 5.621,0 0,0"
           style="fill:#f4ae05;fill-opacity:1;fill-rule:nonzero;stroke:none"
           id="path1700" />
      </g>
      <path
         d="M 311.736,121.581 H 87.204 v 8.814 h 224.532 z"
         style="fill:#514557;fill-opacity:1;fill-rule:nonzero;stroke:none"
         id="path1702" />
      <g
         id="g1704"
         transform="translate(286.4735,146.6581)">
        <path
           d="m 0,0 c 0,0 18.003,-23.754 14.779,-39.965 l -58.654,26.522 -1.269,28.094 -18.171,-19.304 -7.935,3.588 c 0,0 19.373,62.644 42.448,75.049 L 0,0"
           style="fill:#514557;fill-opacity:1;fill-rule:nonzero;stroke:none"
           id="path1706" />
      </g>
      <g
         id="g1708"
         transform="translate(322.4592,283.5351)">
        <path
           d="m 0,0 -38.611,-77.186 2.968,-67.408 c 0,0 -34.226,7.309 -36.132,39.171 -1.913,31.863 6.987,42.53 6.987,42.53 L -37.247,16.842 0,0"
           style="fill:#ffffff;fill-opacity:1;fill-rule:nonzero;stroke:none"
           id="path1710" />
      </g>
      <g
         id="g1712"
         transform="translate(285.3874,299.9691)">
        <path
           d="m 0,0 -27.486,-79.518 c -0.088,-0.107 -8.8,-10.985 -6.919,-42.322 1.763,-29.458 31.775,-37.871 35.516,-38.804 l -2.953,67.089 38.507,76.977 z m 1.745,-161.402 -0.38,0.081 c -0.344,0.074 -34.47,7.725 -36.368,39.447 -1.836,30.574 6.395,41.884 7.02,42.693 L -0.351,0.816 -0.053,0.682 37.479,-16.289 -1.236,-93.683 Z"
           style="fill:#514557;fill-opacity:1;fill-rule:nonzero;stroke:none"
           id="path1714" />
      </g>
      <g
         id="g1716"
         transform="translate(454.2362,85.6459)">
        <path
           d="m 0,0 c 0,0 27.359,-11.826 32.525,-27.526 l -64.113,-5.76 -14.924,23.836 -6.325,-25.745 -8.674,-0.78 c 0,0 -13.946,64.071 0.042,86.222 L 0,0"
           style="fill:#514557;fill-opacity:1;fill-rule:nonzero;stroke:none"
           id="path1718" />
      </g>
      <g
         id="g1720"
         transform="translate(418.2385,222.5197)">
        <path
           d="m 0,0 4.351,-86.194 35.741,-57.23 c 0,0 -33.394,-10.472 -50.727,16.331 -17.338,26.801 -14.836,40.466 -14.836,40.466 L -40.714,-3.658 0,0"
           style="fill:#ffffff;fill-opacity:1;fill-rule:nonzero;stroke:none"
           id="path1722" />
      </g>
      <g
         id="g1724"
         transform="translate(377.8788,218.5935)">
        <path
           d="m 0,0 15.193,-82.701 -0.01,-0.054 c -0.024,-0.136 -2.259,-13.89 14.794,-40.248 16.03,-24.792 46.293,-17.346 50.01,-16.318 L 44.411,-82.283 40.077,3.6 Z m 65.465,-141.756 c -11.215,0 -26.209,3.299 -35.991,18.427 -16.638,25.718 -15.036,39.612 -14.889,40.623 l -15.293,83.243 41.351,3.717 0.016,-0.312 4.346,-86.116 35.906,-57.495 -0.37,-0.116 c -0.146,-0.046 -6.508,-1.971 -15.076,-1.971"
           style="fill:#514557;fill-opacity:1;fill-rule:nonzero;stroke:none"
           id="path1726" />
      </g>
      <g
         id="g1728"
         transform="translate(303.5785,231.0351)">
        <path
           d="m 0,0 -42.752,16.617 31.269,185.917 c 0,0 -129.712,-21.021 -163.272,-4.089 -39.854,20.107 -47.009,64.373 -40.256,96.865 11.195,53.86 26.592,86.155 26.592,86.155 l 144.036,-7.356 15.94,-62.345 c 0,0 39.844,-3.713 52.29,-5.167 37.863,-4.423 53.632,-2.84 69.486,-28.303 C 120.728,234.296 0,0 0,0"
           style="fill:#5582ff;fill-opacity:1;fill-rule:nonzero;stroke:none"
           id="path1730" />
      </g>
      <g
         id="g1732"
         transform="translate(243.2854,803.7992)">
        <path
           d="m 0,0 c 1.279,1.727 9.455,-0.278 11.417,0.323 11.526,3.527 24.311,-12.046 29.95,-22.874 l 62.829,-82.283 69.456,67.622 c 0.775,5.622 3.211,11.368 7.368,16.366 10.187,12.249 26.68,15.364 36.823,6.961 10.148,-8.406 10.108,-25.144 -0.083,-37.397 -8.241,-9.901 -20.592,-13.832 -30.383,-10.531 l -59.656,-95.764 c -10.046,-16.338 -33.855,-16.84 -45.358,-0.954 -1.085,1.496 -1.981,3.07 -2.729,4.687 -0.005,0.008 -0.009,0.003 -0.014,0.011 L 6.114,-60.359 C -2.146,-48.362 -8.946,-12.099 0,0 Z"
           style="fill:#ffffff;fill-opacity:1;fill-rule:nonzero;stroke:none"
           id="path1734" />
      </g>
      <g
         id="g1736"
         transform="translate(323.0772,650.2078)">
        <path
           d="M 0,0 0.028,-0.009 0.09,-0.115 c 0.782,-1.689 1.691,-3.251 2.711,-4.657 5.456,-7.536 14.25,-11.818 23.449,-11.477 8.982,0.339 16.795,4.863 21.437,12.413 l 59.776,95.956 0.213,-0.073 c 9.987,-3.363 22.073,0.831 30.075,10.444 5.473,6.582 8.204,14.756 7.492,22.426 -0.55,5.913 -3.168,11.088 -7.372,14.571 -10.011,8.294 -26.352,5.187 -36.425,-6.924 -3.974,-4.778 -6.5,-10.388 -7.305,-16.223 l -0.013,-0.096 -0.07,-0.068 L 24.373,48.33 -38.65,130.868 c -5.768,11.066 -18.388,26.225 -29.642,22.776 -0.83,-0.254 -2.551,-0.087 -4.541,0.105 -2.696,0.262 -6.052,0.588 -6.731,-0.327 -8.574,-11.596 -2.346,-47.733 6.12,-60.029 z m 25.206,-16.836 c -9.023,0 -17.507,4.332 -22.865,11.731 -1.027,1.417 -1.945,2.988 -2.726,4.667 l -0.034,0.058 -73.482,93.437 c -8.607,12.5 -15.097,48.56 -6.119,60.704 v -0.001 c 0.869,1.174 4.109,0.857 7.242,0.555 1.85,-0.18 3.597,-0.35 4.321,-0.129 11.575,3.544 24.454,-11.823 30.283,-23.015 l 62.609,-81.987 69.157,67.331 c 0.834,5.906 3.398,11.578 7.418,16.412 10.272,12.35 26.973,15.492 37.223,6.998 4.321,-3.58 7.011,-8.891 7.575,-14.956 0.727,-7.819 -2.052,-16.144 -7.622,-22.842 -8.094,-9.723 -20.317,-13.999 -30.477,-10.688 L 48.169,-4.135 c -4.741,-7.712 -12.723,-12.335 -21.898,-12.681 -0.355,-0.013 -0.711,-0.02 -1.065,-0.02"
           style="fill:#514557;fill-opacity:1;fill-rule:nonzero;stroke:none"
           id="path1738" />
      </g>
      <g
         id="g1740"
         transform="translate(225.8747,791.6951)">
        <path
           d="m 0,0 c 0,0 -13.869,-33.824 11.933,-71.759 l 67.32,40.068 c 0,0 -20.278,48.87 -56.666,48.112 L 0,0"
           style="fill:#5582ff;fill-opacity:1;fill-rule:nonzero;stroke:none"
           id="path1742" />
      </g>
      <g
         id="g1744"
         transform="translate(191.6049,823.5793)">
        <path
           d="m 0,0 c 0,0 33.476,-0.295 84.739,-29.448 0,0 11.28,-83.816 -16.102,-115.884 l -3.917,-54.984 -138.247,0.616 c 0,0 -7.663,98.097 -36.084,122.877 l 9.478,48.833 c 0,0 42.117,29.024 100.133,27.99"
           style="fill:#5582ff;fill-opacity:1;fill-rule:nonzero;stroke:none"
           id="path1746" />
      </g>
      <g
         id="g1748"
         transform="translate(145.1355,906.11)">
        <path
           d="m 0,0 c -15.177,0.348 -63.17,-1.169 -63.838,-34.139 -0.327,-16.189 9.987,-31.039 25.038,-37 14.79,-5.862 36.141,-5.447 56.259,27.348 C 46.719,3.892 19.289,2.677 8.489,0.713 5.675,0.195 2.859,-0.062 0,0"
           style="fill:#514557;fill-opacity:1;fill-rule:nonzero;stroke:none"
           id="path1750" />
      </g>
      <g
         id="g1752"
         transform="translate(280.0169,930.4835)">
        <path
           d="m 0,0 c -6.631,-42.617 -46.552,-71.794 -89.169,-65.169 -42.617,6.63 -74.57,50.35 -67.945,92.968 6.625,42.617 43.804,72.178 91.429,58.074 C -24.327,73.629 6.626,42.623 0,0"
           style="fill:#514557;fill-opacity:1;fill-rule:nonzero;stroke:none"
           id="path1754" />
      </g>
      <g
         id="g1756"
         transform="translate(166.9279,912.1725)">
        <path
           d="m 0,0 57.344,-2.532 -3.406,-90.786 c 17.355,-4.564 27.596,-10.739 27.596,-10.739 l -46.092,-40.118 -72.722,45.614 c 11.891,4.445 23.241,7.138 33.902,8.604 z"
           style="fill:#ffffff;fill-opacity:1;fill-rule:nonzero;stroke:none"
           id="path1758" />
      </g>
      <g
         id="g1760"
         transform="translate(130.352,813.5391)">
        <path
           d="m 0,0 71.988,-45.153 45.586,39.678 C 115.578,-4.342 105.721,0.992 90.435,5.013 L 90.192,5.077 93.595,95.804 36.877,98.307 33.501,8.402 33.241,8.367 C 22.038,6.825 10.858,4.011 0,0 M 72.048,-45.93 -1.407,0.144 -0.813,0.366 C 10.19,4.479 21.529,7.367 32.895,8.95 L 36.275,98.96 94.244,96.401 94.232,96.09 90.836,5.554 c 17.055,-4.517 27.333,-10.648 27.436,-10.71 l 0.367,-0.221 -0.323,-0.282 z"
           style="fill:#514557;fill-opacity:1;fill-rule:nonzero;stroke:none"
           id="path1762" />
      </g>
      <g
         id="g1764"
         transform="translate(164.7035,907.9864)">
        <path
           d="M 0,0 C 0,0 3.315,-68.761 56.355,-69.769 L 57.813,-35.457 0,0"
           style="fill:#514557;fill-opacity:1;fill-rule:nonzero;stroke:none"
           id="path1766" />
      </g>
      <g
         id="g1768"
         transform="translate(246.8005,912.4951)">
        <path
           d="m 0,0 c -1.703,-10.923 5.781,-21.157 16.704,-22.86 10.923,-1.695 21.157,5.787 22.86,16.71 C 41.26,4.774 33.777,15.008 22.853,16.704 11.93,18.407 1.696,10.924 0,0"
           style="fill:#ffffff;fill-opacity:1;fill-rule:nonzero;stroke:none"
           id="path1770" />
      </g>
      <g
         id="g1772"
         transform="translate(266.5318,929.1589)">
        <path
           d="m 0,0 c -4.151,0 -8.181,-1.309 -11.597,-3.806 -4.255,-3.111 -7.045,-7.693 -7.853,-12.902 -0.812,-5.207 0.454,-10.42 3.566,-14.676 3.11,-4.256 7.691,-7.047 12.901,-7.859 10.754,-1.674 20.859,5.721 22.535,16.473 1.67,10.753 -5.721,20.86 -16.474,22.53 C 2.05,-0.079 1.021,0 0,0 m 0.055,-40.046 c -1.032,0 -2.075,0.08 -3.126,0.242 -11.064,1.725 -18.663,12.126 -16.941,23.184 0.833,5.358 3.702,10.071 8.08,13.272 4.378,3.201 9.734,4.501 15.098,3.669 C 14.227,-1.397 21.83,-11.795 20.113,-22.857 18.553,-32.868 9.885,-40.045 0.055,-40.046"
           style="fill:#514557;fill-opacity:1;fill-rule:nonzero;stroke:none"
           id="path1774" />
      </g>
      <g
         id="g1776"
         transform="translate(247.8148,996.0694)">
        <path
           d="m 0,0 c 13.228,-2.061 34.03,-29.49 30.546,-51.915 l -8.115,-52.236 c -4.728,-30.379 -32.433,-44.842 -62.819,-40.119 -22.517,3.506 -44.873,28.245 -46.754,54.814 -1.933,-0.283 -3.916,-0.384 -5.948,-0.069 -10.929,1.704 -18.408,11.939 -16.712,22.863 1.702,10.923 11.932,18.407 22.861,16.704 1.565,-0.243 3.036,-0.703 4.443,-1.273 l 3.864,24.839 c 2.054,13.223 14.562,22.369 27.784,20.309 z"
           style="fill:#ffffff;fill-opacity:1;fill-rule:nonzero;stroke:none"
           id="path1778" />
      </g>
      <g
         id="g1780"
         transform="translate(160.9613,906.9721)">
        <path
           d="m 0,0 0.024,-0.337 c 1.803,-25.472 23.527,-50.951 46.489,-54.527 32.344,-5.027 58.029,11.364 62.463,39.859 l 8.114,52.236 c 3.449,22.201 -17.164,49.461 -30.243,51.55 L 35.998,82.699 35.955,82.705 C 29.649,83.685 23.307,82.138 18.109,78.338 12.912,74.539 9.51,68.97 8.529,62.657 L 4.604,37.427 4.237,37.576 c -1.544,0.627 -2.974,1.037 -4.372,1.254 -10.726,1.668 -20.829,-5.703 -22.505,-16.443 -1.666,-10.735 5.714,-20.831 16.452,-22.505 1.784,-0.278 3.645,-0.255 5.854,0.069 z m 57.907,-56.391 c -3.716,0 -7.553,0.297 -11.49,0.909 -10.963,1.707 -22.373,8.582 -31.304,18.862 -9.151,10.534 -14.714,23.271 -15.689,35.905 -2.13,-0.288 -3.952,-0.295 -5.708,-0.021 -11.079,1.727 -18.693,12.143 -16.974,23.22 1.727,11.081 12.141,18.69 23.219,16.964 1.334,-0.206 2.694,-0.582 4.146,-1.146 l 3.804,24.451 c 1.006,6.478 4.497,12.193 9.828,16.09 5.321,3.889 11.807,5.482 18.27,4.487 l 50.85,6.083 0.043,-0.007 c 13.291,-2.07 34.306,-29.745 30.806,-52.271 l -8.114,-52.236 c -3.95,-25.385 -24.529,-41.29 -51.687,-41.29"
           style="fill:#514557;fill-opacity:1;fill-rule:nonzero;stroke:none"
           id="path1782" />
      </g>
      <g
         id="g1784"
         transform="translate(224.8515,920.6399)">
        <path
           d="m 0,0 c -0.546,-2.383 -2.921,-3.868 -5.304,-3.321 -2.382,0.546 -3.873,2.922 -3.321,5.298 0.546,2.389 2.922,3.873 5.304,3.327 C -0.938,4.758 0.546,2.383 0,0"
           style="fill:#514557;fill-opacity:1;fill-rule:nonzero;stroke:none"
           id="path1786" />
      </g>
      <g
         id="g1788"
         transform="translate(261.0585,914.7453)">
        <path
           d="M 0,0 C -0.546,-2.382 -2.921,-3.867 -5.304,-3.321 -7.686,-2.775 -9.171,-0.4 -8.625,1.977 -8.072,4.365 -5.697,5.85 -3.321,5.304 -0.938,4.758 0.553,2.382 0,0"
           style="fill:#514557;fill-opacity:1;fill-rule:nonzero;stroke:none"
           id="path1790" />
      </g>
      <g
         id="g1792"
         transform="translate(237.9186,897.2301)">
        <path
           d="m 0,0 c -1.547,0 -3.318,0.44 -5.298,1.319 -0.076,0.033 -0.11,0.122 -0.077,0.197 0.034,0.075 0.128,0.11 0.198,0.076 3.215,-1.428 5.854,-1.674 7.837,-0.735 2.143,1.016 2.739,3.108 2.744,3.13 l 0.767,12.69 c 0.004,0.079 0.07,0.14 0.149,0.14 0.002,0 0.006,0 0.009,0 0.082,-0.005 0.145,-0.076 0.14,-0.159 L 5.697,3.938 C 5.668,3.817 5.06,1.667 2.793,0.59 1.966,0.196 1.033,0 0,0"
           style="fill:#514557;fill-opacity:1;fill-rule:nonzero;stroke:none"
           id="path1794" />
      </g>
      <g
         id="g1796"
         transform="translate(208.1323,939.1823)">
        <path
           d="m 0,0 c 0.25,-0.081 0.522,-0.148 0.802,-0.18 l 19.919,-2.239 c 2.219,-0.25 4.223,1.352 4.473,3.577 0.256,2.224 -1.335,4.221 -3.57,4.484 L 1.703,7.864 C -0.521,8.114 -2.526,6.512 -2.776,4.288 -2.993,2.344 -1.798,0.572 -0.003,-0.018"
           style="fill:#514557;fill-opacity:1;fill-rule:nonzero;stroke:none"
           id="path1798" />
      </g>
      <g
         id="g1800"
         transform="translate(255.9954,932.8452)">
        <path
           d="m 0,0 c 0.257,-0.082 0.527,-0.148 0.797,-0.18 l 12.181,-1.366 c 2.224,-0.256 4.228,1.34 4.479,3.571 0.249,2.224 -1.352,4.229 -3.571,4.478 L 1.711,7.869 C -0.521,8.113 -2.524,6.518 -2.774,4.293 -2.992,2.349 -1.797,0.571 -0.001,-0.013"
           style="fill:#514557;fill-opacity:1;fill-rule:nonzero;stroke:none"
           id="path1802" />
      </g>
      <g
         id="g1804"
         transform="translate(255.9653,984.5099)">
        <path
           d="m 0,0 c 0,0 -57.967,-48.412 -99.422,-38.403 0,0 -11.828,43.792 29.638,58.919 41.467,15.126 64.892,-11.57 64.892,-11.57 L 0,0"
           style="fill:#514557;fill-opacity:1;fill-rule:nonzero;stroke:none"
           id="path1806" />
      </g>
      <g
         id="g1808"
         transform="translate(222.8451,985.1035)">
        <path
           d="m 0,0 c 0,0 19.519,-24.112 56.463,-34.901 0,0 -1.508,38.978 -33.901,49.231 L 0,0"
           style="fill:#514557;fill-opacity:1;fill-rule:nonzero;stroke:none"
           id="path1810" />
      </g>
      <g
         id="g1812"
         transform="translate(186.8604,955.4844)">
        <path
           d="M 0,0 C 0,0 -2.117,-30.29 -21.647,-30.909 L -21.066,-3.21 0,0"
           style="fill:#514557;fill-opacity:1;fill-rule:nonzero;stroke:none"
           id="path1814" />
      </g>
      <g
         id="g1816"
         transform="translate(248.0592,964.1619)">
        <path
           d="m 0,0 c 0,0 33.081,-23.915 48.505,-7.538 0,0 -15.857,2.618 -22.82,18.611 L 0,0"
           style="fill:#514557;fill-opacity:1;fill-rule:nonzero;stroke:none"
           id="path1818" />
      </g>
      <g
         id="g1820"
         transform="translate(273.7441,975.2348)">
        <path
           d="M 0,0 C 0,0 -2.425,46.5 -59.412,41.122 L -5.796,-8.874 0,0"
           style="fill:#514557;fill-opacity:1;fill-rule:nonzero;stroke:none"
           id="path1822" />
      </g>
      <g
         id="g1824"
         transform="translate(206.8592,886.7358)">
        <path
           d="m 0,0 c 1.103,-1.528 7.074,-9.241 16.127,-10.573 6.074,-0.892 12.276,1.217 18.452,6.274 z m 18.848,-11.06 c -0.925,0 -1.846,0.067 -2.765,0.202 C 5.947,-9.365 -0.362,0.009 -0.423,0.103 -0.454,0.15 -0.456,0.211 -0.426,0.258 c 0.03,0.048 0.083,0.073 0.14,0.067 l 35.233,-4.379 c 0.056,-0.007 0.104,-0.048 0.119,-0.103 0.017,-0.055 -0.002,-0.114 -0.045,-0.151 -5.396,-4.488 -10.824,-6.752 -16.173,-6.752"
           style="fill:#514557;fill-opacity:1;fill-rule:nonzero;stroke:none"
           id="path1826" />
      </g>
      <g
         id="g1828"
         transform="translate(261.6736,595.4497)">
        <path
           d="m 0,0 -5.19,27.814 -139.944,1.41 -1.356,-6.238 L -153.492,0 Z"
           style="fill:#514557;fill-opacity:1;fill-rule:nonzero;stroke:none"
           id="path1830" />
      </g>
      <g
         id="g1832"
         transform="translate(104.3211,797.556)">
        <path
           d="m 0,0 c 2.366,-0.048 4.496,-0.645 6.291,-1.915 10.54,-7.466 6.1,-34.472 0.02,-45.464 l -33.41,-100.044 105.02,-17.876 c 5.53,2.646 12.234,3.992 19.37,3.478 17.489,-1.259 30.842,-13.072 29.818,-26.369 -1.024,-13.302 -16.034,-23.056 -33.529,-21.796 -14.141,1.023 -25.572,8.935 -28.889,18.958 l -123.934,-6.678 c -21.06,-1.248 -36.759,18.139 -29.907,36.936 0.644,1.771 1.478,3.432 2.447,4.996 0.004,0.009 -0.003,0.009 0.001,0.017 l 36.588,115.413 C -44.665,-26.501 -16.56,0.321 0,0 Z"
           style="fill:#ffffff;fill-opacity:1;fill-rule:nonzero;stroke:none"
           id="path1834" />
      </g>
      <g
         id="g1836"
         transform="translate(169.2254,606.8395)">
        <path
           d="m 0,0 0.071,-0.218 c 3.383,-10.222 14.887,-17.759 28.626,-18.753 17.302,-1.233 32.199,8.409 33.209,21.521 0.403,5.231 -1.415,10.354 -5.257,14.816 -5.535,6.425 -14.386,10.518 -24.284,11.231 -6.827,0.49 -13.477,-0.701 -19.219,-3.45 l -0.085,-0.041 -0.094,0.016 -105.365,17.935 0.111,0.331 33.41,100.044 c 6.161,11.149 10.411,37.815 0.09,45.125 -1.676,1.186 -3.736,1.811 -6.123,1.86 -15.887,0.301 -44.245,-25.967 -49.829,-40.154 l -36.553,-115.304 0.005,-0.014 -0.042,-0.113 c -1.026,-1.665 -1.84,-3.328 -2.444,-4.988 -3.075,-8.437 -1.714,-17.472 3.736,-24.79 5.931,-7.962 15.594,-12.341 25.872,-11.745 z m 31.691,-19.678 c -1.003,0 -2.015,0.036 -3.037,0.11 -13.881,1.004 -25.53,8.605 -29.077,18.945 l -123.708,-6.666 c -10.48,-0.612 -20.334,3.861 -26.386,11.985 -5.574,7.482 -6.965,16.723 -3.819,25.353 0.61,1.677 1.429,3.355 2.435,4.989 l 0.027,0.057 36.57,115.368 c 5.643,14.339 33.454,40.556 50.103,40.556 0.101,0 0.202,-0.001 0.303,-0.002 v -0.001 c 2.509,-0.05 4.681,-0.713 6.457,-1.971 10.574,-7.488 6.338,-34.594 0.11,-45.853 L -91.608,43.53 12.974,25.729 c 5.817,2.763 12.534,3.961 19.434,3.465 10.056,-0.723 19.056,-4.892 24.694,-11.438 3.949,-4.584 5.817,-9.859 5.402,-15.252 -0.976,-12.66 -14.509,-22.182 -30.813,-22.182"
           style="fill:#514557;fill-opacity:1;fill-rule:nonzero;stroke:none"
           id="path1838" />
      </g>
      <g
         id="g1840"
         transform="translate(111.5632,801.2019)">
        <path
           d="m 0,0 c 0,0 -36.524,-1.758 -59.975,-41.189 l 64.804,-44.03 c 0,0 46.919,29.334 17.751,73.159 L 0,0"
           style="fill:#5582ff;fill-opacity:1;fill-rule:nonzero;stroke:none"
           id="path1842" />
      </g>
      <g
         id="g1844"
         transform="translate(376.4882,482.8356)">
        <path
           d="m 0,0 c 0,0 24.486,-33.073 31.501,-61.068 7.248,-28.919 19.241,-258.029 19.241,-258.029 l -47.107,-3.884 -47.107,194.593"
           style="fill:#5582ff;fill-opacity:1;fill-rule:nonzero;stroke:none"
           id="path1846" />
      </g>
      <g
         id="g1848"
         transform="translate(112.298,540.7559)">
        <path
           d="M 0,0 132.042,-6.554 132.78,8.34 0.739,14.899 C -3.369,15.101 -6.874,11.936 -7.077,7.822 -7.285,3.709 -4.114,0.203 0,0"
           style="fill:#514557;fill-opacity:1;fill-rule:nonzero;stroke:none"
           id="path1850" />
      </g>
      <g
         id="g1852"
         transform="translate(226.9594,535.0651)">
        <path
           d="m 0,0 174.97,-8.693 c 10.078,-0.499 19.255,5.776 22.435,15.356 l 40.206,120.881 c 3.557,10.684 -4.055,21.819 -15.312,22.38 L 61.602,157.9 c -6.73,0.333 -12.831,-3.906 -14.868,-10.326 L 0,0"
           style="fill:#514557;fill-opacity:1;fill-rule:nonzero;stroke:none"
           id="path1854" />
      </g>
      <g
         id="g1856"
         transform="translate(337.14,603.1965)">
        <path
           d="m 0,0 c -0.457,-9.146 6.586,-16.92 15.727,-17.376 9.141,-0.456 16.921,6.586 17.378,15.733 0.456,9.14 -6.593,16.921 -15.734,17.371 C 8.23,16.184 0.45,9.142 0,0"
           style="fill:#ffffff;fill-opacity:1;fill-rule:nonzero;stroke:none"
           id="path1858" />
      </g>
    </g>
  </g>
</svg>
