<?xml version="1.0" encoding="UTF-8" standalone="no"?>
<!-- Created with Inkscape (http://www.inkscape.org/) -->

<svg
   width="500"
   height="590"
   viewBox="0 0 132.29166 156.10417"
   version="1.1"
   id="svg5"
   inkscape:version="1.1.2 (0a00cf5339, 2022-02-04)"
   sodipodi:docname="lost_password.svg"
   xmlns:inkscape="http://www.inkscape.org/namespaces/inkscape"
   xmlns:sodipodi="http://sodipodi.sourceforge.net/DTD/sodipodi-0.dtd"
   xmlns="http://www.w3.org/2000/svg"
   xmlns:svg="http://www.w3.org/2000/svg">
  <sodipodi:namedview
     id="namedview7"
     pagecolor="#ffffff"
     bordercolor="#666666"
     borderopacity="1.0"
     inkscape:pageshadow="2"
     inkscape:pageopacity="0.0"
     inkscape:pagecheckerboard="0"
     inkscape:document-units="mm"
     showgrid="false"
     units="px"
     width="500px"
     inkscape:zoom="0.64052329"
     inkscape:cx="402.01505"
     inkscape:cy="311.46408"
     inkscape:window-width="1862"
     inkscape:window-height="1016"
     inkscape:window-x="58"
     inkscape:window-y="27"
     inkscape:window-maximized="1"
     inkscape:current-layer="layer1" />
  <defs
     id="defs2">
    <clipPath
       clipPathUnits="userSpaceOnUse"
       id="clipPath1200">
      <path
         d="M 34.734,54.54 H 565.266 V 645.46 H 34.734 Z"
         id="path1198" />
    </clipPath>
    <clipPath
       clipPathUnits="userSpaceOnUse"
       id="clipPath1268">
      <path
         d="m 238.845,504.249 h 53.582 V 428.22 h -53.582 z"
         id="path1266" />
    </clipPath>
  </defs>
  <g
     inkscape:label="Capa 1"
     inkscape:groupmode="layer"
     id="layer1">
    <g
       id="g1196"
       clip-path="url(#clipPath1200)"
       transform="matrix(0.26580367,0,0,-0.26497316,-14.880973,170.5558)">
      <g
         id="g1202"
         transform="translate(504.6165,363.2517)">
        <path
           d="m 0,0 -41.961,11.904 c -2.108,0.598 -2.885,2.837 -1.736,5.003 l 42.644,80.316 c 1.149,2.166 3.79,3.436 5.898,2.838 L 46.806,88.157 c 2.108,-0.598 2.885,-2.837 1.735,-5.003 L 5.898,2.838 C 4.749,0.672 2.108,-0.598 0,0"
           style="fill:#5582ff;fill-opacity:1;fill-rule:nonzero;stroke:none"
           id="path1204" />
      </g>
      <g
         id="g1206"
         transform="translate(505.326,363.1123)">
        <path
           d="m 0,0 -39.408,11.117 c -1.972,0.576 -2.513,3.076 -1.408,5.16 L 0.17,93.605 c 1.105,2.085 3.599,3.308 5.57,2.732 L 44.987,84.876 c 1.971,-0.575 2.355,-2.475 1.25,-4.56 L 5.57,2.732 C 4.465,0.647 1.972,-0.576 0,0"
           style="fill:#514557;fill-opacity:1;fill-rule:nonzero;stroke:none"
           id="path1208" />
      </g>
      <g
         id="g1210"
         transform="translate(543.1699,438.7354)">
        <path
           d="M 0,0 C -1.064,-2.007 -3.464,-3.184 -5.362,-2.63 -7.26,-2.076 -7.937,0 -6.873,2.007 -5.81,4.014 -3.409,5.191 -1.511,4.637 0.387,4.083 1.064,2.007 0,0"
           style="fill:#ffffff;fill-opacity:1;fill-rule:nonzero;stroke:none"
           id="path1212" />
      </g>
      <g
         id="g1214"
         transform="translate(530.2967,377.6092)">
        <path
           d="m 0,0 c 0,0 11.261,14.219 13,35.822 0,0 0.727,4.596 -3.857,4.895 -2.059,0.133 -3.929,-1.452 -5.75,-6.833 0,0 -5.825,-14.634 -12.48,-22.334"
           style="fill:#ffffff;fill-opacity:1;fill-rule:nonzero;stroke:#514557;stroke-width:0.313;stroke-linecap:butt;stroke-linejoin:miter;stroke-miterlimit:4;stroke-dasharray:none;stroke-opacity:1"
           id="path1216" />
      </g>
      <g
         id="g1218"
         transform="translate(536.3834,413.6124)">
        <path
           d="m 0,0 c -3.659,9.757 -15.538,24.508 -33.835,17.189 -15.854,-6.342 -9.204,-40.361 -19.566,-56.586 l -54.987,-81.757 -59.181,86.59 c -5.558,12.196 -18.673,30.005 -31.513,26.803 -2.185,-0.545 -11.032,2.125 -12.534,0.305 v 0 c -10.505,-12.747 -5.143,-52.892 3.22,-66.521 0,0 76.819,-110.315 77.922,-112.018 0.248,-0.383 0.538,-0.714 0.799,-1.082 0.366,-0.531 0.75,-1.051 1.154,-1.562 0.228,-0.283 0.451,-0.57 0.686,-0.842 0.745,-0.875 1.526,-1.727 2.383,-2.527 5.561,-5.183 12.349,-7.717 19.127,-7.993 0.285,-0.015 0.569,-0.045 0.855,-0.052 0.434,-0.006 0.865,0.021 1.298,0.034 7.935,0.144 15.746,3.364 21.364,9.782 2.504,2.766 4.553,6.076 5.95,9.895 l 47.3,127.304 c 8.695,1.311 17.6,6.996 23.674,16.11 C 4.103,-21.942 4.968,-13.248 0,0"
           style="fill:#ffffff;fill-opacity:1;fill-rule:nonzero;stroke:none"
           id="path1220" />
      </g>
      <g
         id="g1222"
         transform="translate(536.3834,413.6124)">
        <path
           d="m 0,0 c -3.659,9.757 -15.538,24.508 -33.835,17.189 -15.854,-6.342 -9.204,-40.361 -19.566,-56.586 l -54.987,-81.757 -59.181,86.59 c -5.558,12.196 -18.673,30.005 -31.513,26.803 -2.185,-0.545 -11.032,2.125 -12.534,0.305 v 0 c -10.505,-12.747 -5.143,-52.892 3.22,-66.521 0,0 76.819,-110.315 77.922,-112.018 0.248,-0.383 0.538,-0.714 0.799,-1.082 0.366,-0.531 0.75,-1.051 1.154,-1.562 0.228,-0.283 0.451,-0.57 0.686,-0.842 0.745,-0.875 1.526,-1.727 2.383,-2.527 5.561,-5.183 12.349,-7.717 19.127,-7.993 0.285,-0.015 0.569,-0.045 0.855,-0.052 0.434,-0.006 0.865,0.021 1.298,0.034 7.935,0.144 15.746,3.364 21.364,9.782 2.504,2.766 4.553,6.076 5.95,9.895 l 47.3,127.304 c 8.695,1.311 17.6,6.996 23.674,16.11 C 4.103,-21.942 4.968,-13.248 0,0 Z"
           style="fill:none;stroke:#514557;stroke-width:0.354;stroke-linecap:butt;stroke-linejoin:miter;stroke-miterlimit:4;stroke-dasharray:none;stroke-opacity:1"
           id="path1224" />
      </g>
      <g
         id="g1226"
         transform="translate(63.0174,474.8584)">
        <path
           d="M 0,0 C 1.198,-1.58 0.744,0.058 -3.061,-1.857 L 79.013,-88.73 c 12.401,-11.343 54.668,-26.587 62.073,-11.524 5.427,11.059 -7.946,34.492 -18.032,41.621 L 43.861,21.466 0,0"
           style="fill:#ffffff;fill-opacity:1;fill-rule:nonzero;stroke:#514557;stroke-width:0.354;stroke-linecap:butt;stroke-linejoin:miter;stroke-miterlimit:4;stroke-dasharray:none;stroke-opacity:1"
           id="path1228" />
      </g>
      <g
         id="g1230"
         transform="translate(76.9995,458.9043)">
        <path
           d="M 0,0 C 25.933,-8.408 50.526,27.87 50.526,27.87 L 115.1,99.289 c 12.754,1.432 27.179,12.22 32.399,23.485 7.881,17.011 0.407,37.243 -13.629,41.591 -14.038,4.345 -30.424,-15.88 -34.772,-29.916 -1.11,-3.586 -2.073,-7.299 -2.682,-10.924 L -6.31,55.111 C -24.558,42.959 -26.211,16.636 -7.951,4.504 -7.16,3.943 -2.867,1.772 0,0"
           style="fill:#ffffff;fill-opacity:1;fill-rule:nonzero;stroke:none"
           id="path1232" />
      </g>
      <g
         id="g1234"
         transform="translate(76.9995,458.9043)">
        <path
           d="M 0,0 C 25.933,-8.408 50.526,27.87 50.526,27.87 L 115.1,99.289 c 12.754,1.432 27.179,12.22 32.399,23.485 7.881,17.011 0.407,37.243 -13.629,41.591 -14.038,4.345 -30.424,-15.88 -34.772,-29.916 -1.11,-3.586 -2.073,-7.299 -2.682,-10.924 L -6.31,55.111 C -24.558,42.959 -26.211,16.636 -7.951,4.504 -7.16,3.943 -2.867,1.772 0,0 Z"
           style="fill:none;stroke:#514557;stroke-width:0.342;stroke-linecap:butt;stroke-linejoin:miter;stroke-miterlimit:4;stroke-dasharray:none;stroke-opacity:1"
           id="path1236" />
      </g>
      <g
         id="g1238"
         transform="translate(223.2315,427.685)">
        <path
           d="m 0,0 c 0,0 -31.858,19.403 -79.579,37.355 l -27.109,-70.219 c 0,0 40.845,-32.588 84.581,-66.358 l 33.193,62.912"
           style="fill:#5582ff;fill-opacity:1;fill-rule:nonzero;stroke:none"
           id="path1240" />
      </g>
      <g
         id="g1242"
         transform="translate(156.7716,117.3032)">
        <path
           d="m 0,0 c 0,0 -6.634,-165.5 10.899,-515.285 h 57.769 c 0,0 26.034,386.675 29.318,415.929 l 20.951,0.145 35.479,-416.074 h 56.269 c 0,0 15.241,312.408 -1.431,520.721 C 206.17,43.966 0,0 0,0"
           style="fill:#514557;fill-opacity:1;fill-rule:nonzero;stroke:none"
           id="path1244" />
      </g>
      <g
         id="g1246"
         transform="translate(230.9512,433.5702)">
        <path
           d="m 0,0 c 0,0 25.647,10.474 57.036,0 l 57.247,-18.806 26.755,-328.177 H -78.245 l 19.252,328.686 z"
           style="fill:#5582ff;fill-opacity:1;fill-rule:nonzero;stroke:none"
           id="path1248" />
      </g>
      <g
         id="g1250"
         transform="translate(339.0131,416.6427)">
        <path
           d="m 0,0 c 0,0 44.746,-7.566 75.92,-76.976 l -79.693,-55.299 c 0,0 -69.568,50.708 -21.557,116.47 z"
           style="fill:#5582ff;fill-opacity:1;fill-rule:nonzero;stroke:none"
           id="path1252" />
      </g>
      <g
         id="g1254"
         transform="translate(228.0488,507.4637)">
        <path
           d="m 0,0 c -2.255,4.113 -60.487,80.147 -5.348,104.06 0,0 4.454,35.726 44.467,31.855 40.019,-3.87 29.058,-15.604 54.545,-9.795 25.481,5.809 49.474,-7.332 47.541,-28.631 C 139.267,76.19 123.033,67.156 93.664,72.319 64.289,77.482 41.057,73.611 41.057,73.611 L 16.533,66.463 0,0"
           style="fill:#514557;fill-opacity:1;fill-rule:nonzero;stroke:none"
           id="path1256" />
      </g>
      <g
         id="g1258"
         transform="translate(231.4846,432.3637)">
        <path
           d="M 0,0 3.109,86.072 62.783,65.027 58.053,-3.981 C 56.945,-20.012 48.084,-32.439 32.052,-31.337 l -5.019,0.323 C 11.001,-29.917 -1.102,-16.026 0,0"
           style="fill:#ffffff;fill-opacity:1;fill-rule:nonzero;stroke:#514557;stroke-width:0.072;stroke-linecap:butt;stroke-linejoin:miter;stroke-miterlimit:4;stroke-dasharray:none;stroke-opacity:1"
           id="path1260" />
      </g>
      <g
         id="g1262">
        <g
           id="g1264" />
        <g
           id="g1276">
          <g
             clip-path="url(#clipPath1268)"
             opacity="0.800003"
             id="g1274">
            <g
               transform="translate(239.6533,504.2489)"
               id="g1272">
              <path
                 d="M 0,0 C 0,0 -11.226,-71.898 49.999,-76.029 L 52.774,-41.992 0,0"
                 style="fill:#514557;fill-opacity:1;fill-rule:nonzero;stroke:none"
                 id="path1270" />
            </g>
          </g>
        </g>
      </g>
      <g
         id="g1278"
         transform="translate(353.2168,531.9642)">
        <path
           d="m 0,0 c -0.484,-10.315 -9.242,-18.282 -19.551,-17.797 -10.309,0.485 -18.282,9.236 -17.797,19.551 0.484,10.309 9.242,18.276 19.551,17.791 C -7.488,19.066 0.485,10.315 0,0"
           style="fill:#ffffff;fill-opacity:1;fill-rule:nonzero;stroke:#514557;stroke-width:0.27;stroke-linecap:butt;stroke-linejoin:miter;stroke-miterlimit:4;stroke-dasharray:none;stroke-opacity:1"
           id="path1280" />
      </g>
      <g
         id="g1282"
         transform="translate(245.128,597.6315)">
        <path
           d="M 0,0 72.861,-3.422 C 86.994,-4.08 97.907,-16.077 97.249,-30.211 l -2.408,-51.235 c -1.431,-30.576 -27.379,-54.196 -57.954,-52.766 l -2.054,0.102 c -30.575,1.436 -54.201,27.378 -52.765,57.954 l 0.084,1.715 c -1.851,-0.509 -3.784,-0.822 -5.805,-0.727 -10.315,0.485 -18.282,9.232 -17.797,19.546 0.484,10.309 9.24,18.282 19.554,17.797 2.02,-0.095 3.911,-0.588 5.704,-1.267 L -15,-13.665 C -14.626,-5.744 -7.915,0.369 0,0 Z"
           style="fill:#ffffff;fill-opacity:1;fill-rule:nonzero;stroke:none"
           id="path1284" />
      </g>
      <g
         id="g1286"
         transform="translate(245.128,597.6315)">
        <path
           d="M 0,0 72.861,-3.422 C 86.994,-4.08 97.907,-16.077 97.249,-30.211 l -2.408,-51.235 c -1.431,-30.576 -27.379,-54.196 -57.954,-52.766 l -2.054,0.102 c -30.575,1.436 -54.201,27.378 -52.765,57.954 l 0.084,1.715 c -1.851,-0.509 -3.784,-0.822 -5.805,-0.727 -10.315,0.485 -18.282,9.232 -17.797,19.546 0.484,10.309 9.24,18.282 19.554,17.797 2.02,-0.095 3.911,-0.588 5.704,-1.267 L -15,-13.665 C -14.626,-5.744 -7.915,0.369 0,0 Z"
           style="fill:none;stroke:#514557;stroke-width:0.27;stroke-linecap:butt;stroke-linejoin:miter;stroke-miterlimit:4;stroke-dasharray:none;stroke-opacity:1"
           id="path1288" />
      </g>
      <g
         id="g1290"
         transform="translate(255.8722,585.3094)">
        <path
           d="m 0,0 c 0,0 3.923,-27.887 -18.391,-27.414 -22.309,0.473 1.926,29.716 1.926,29.716 L 0,0"
           style="fill:#514557;fill-opacity:1;fill-rule:nonzero;stroke:none"
           id="path1292" />
      </g>
      <g
         id="g1294"
         transform="translate(340.404,578.4848)">
        <path
           d="m 0,0 c 0,0 -19.747,-3.086 -48.268,3.975 -28.516,7.067 -51.09,-15.928 -51.09,-15.928 0,0 -6.075,-10.632 -7.603,-10.355 -1.523,0.276 -10.212,3.628 -10.212,3.628 l 0.352,32.248 20.843,16.309 57.984,2.36 34.29,-7.546 L 0,0"
           style="fill:#514557;fill-opacity:1;fill-rule:nonzero;stroke:none"
           id="path1296" />
      </g>
      <g
         id="g1298"
         transform="translate(275.6338,547.4567)">
        <path
           d="m 0,0 c -0.306,-2.475 -2.567,-4.234 -5.048,-3.929 -2.475,0.312 -4.234,2.573 -3.923,5.048 0.306,2.481 2.567,4.235 5.048,3.929 C -1.448,4.736 0.312,2.481 0,0"
           style="fill:#514557;fill-opacity:1;fill-rule:nonzero;stroke:none"
           id="path1300" />
      </g>
      <g
         id="g1302"
         transform="translate(321.8745,545.7664)">
        <path
           d="m 0,0 c -0.311,-2.481 -2.573,-4.234 -5.048,-3.929 -2.48,0.312 -4.24,2.567 -3.928,5.048 0.31,2.475 2.567,4.235 5.048,3.923 C -1.454,4.736 0.3,2.481 0,0"
           style="fill:#514557;fill-opacity:1;fill-rule:nonzero;stroke:none"
           id="path1304" />
      </g>
      <g
         id="g1306"
         transform="translate(305.2742,540.358)">
        <path
           d="m 0,0 0.231,-18.801 c 0,0 -1.131,-6.784 -10.713,-3.646"
           style="fill:none;stroke:#514557;stroke-width:0.149;stroke-linecap:round;stroke-linejoin:round;stroke-miterlimit:10;stroke-dasharray:none;stroke-opacity:1"
           id="path1308" />
      </g>
      <g
         id="g1310"
         transform="translate(264.7291,556.4764)">
        <path
           d="M 0,0 C 0.265,-0.057 0.548,-0.087 0.836,-0.092 L 21.31,-0.299 c 2.284,-0.023 4.159,1.811 4.182,4.101 0.016,2.285 -1.8,4.142 -4.096,4.177 L 0.916,8.192 C -1.368,8.21 -3.237,6.381 -3.266,4.091 -3.283,2.095 -1.888,0.41 -0.001,0"
           style="fill:#514557;fill-opacity:1;fill-rule:nonzero;stroke:none"
           id="path1312" />
      </g>
      <g
         id="g1314"
         transform="translate(315.5562,560.4594)">
        <path
           d="m 0,0 c 0.231,-0.154 0.482,-0.287 0.737,-0.394 l 11.572,-4.777 c 2.117,-0.874 4.535,0.133 5.406,2.245 0.881,2.108 -0.133,4.535 -2.24,5.404 L 3.905,7.26 C 1.791,8.127 -0.632,7.121 -1.509,5.012 -2.267,3.165 -1.593,1.08 0,0"
           style="fill:#514557;fill-opacity:1;fill-rule:nonzero;stroke:none"
           id="path1316" />
      </g>
      <g
         id="g1318"
         transform="translate(226.4036,545.1954)">
        <path
           d="m 0,0 c 0,0 -11.049,-89.957 35.013,-101.502 46.063,-11.544 83.779,-10.139 75.94,58.121 0,0 -5.546,-12.653 -10.405,-18.795 -7.284,-9.207 9.724,24.517 -19.194,25.671 C 52.435,-35.352 37.983,-33.804 36.195,-54.89 34.964,-69.401 11.811,-67.269 12.653,-23.399 13.496,20.471 0,0 0,0"
           style="fill:#514557;fill-opacity:1;fill-rule:nonzero;stroke:none"
           id="path1320" />
      </g>
      <g
         id="g1322"
         transform="translate(238.9337,532.5794)">
        <path
           d="m 0,0 c 0,0 -0.426,23.101 0.611,30.853 l -11.314,2.363 -2.064,-22.849 z"
           style="fill:#514557;fill-opacity:1;fill-rule:nonzero;stroke:none"
           id="path1324" />
      </g>
      <g
         id="g1326"
         transform="translate(282.3246,490.5629)">
        <path
           d="m 0,0 27.805,-1.821 c 0.918,-0.06 1.418,1.057 0.745,1.685 C 23.915,4.188 11.238,13.648 -0.393,0.995 -0.722,0.638 -0.485,0.032 0,0"
           style="fill:#ffffff;fill-opacity:1;fill-rule:nonzero;stroke:none"
           id="path1328" />
      </g>
      <g
         id="g1330"
         transform="translate(549.5511,569.5374)">
        <path
           d="m 0,0 c 0,-36.052 -29.226,-65.278 -65.278,-65.278 -36.052,0 -65.278,29.226 -65.278,65.278 0,36.052 29.226,65.278 65.278,65.278 C -29.226,65.278 0,36.052 0,0"
           style="fill:#ffffff;fill-opacity:1;fill-rule:nonzero;stroke:none"
           id="path1332" />
      </g>
      <g
         id="g1334"
         transform="translate(549.5511,569.5374)">
        <path
           d="m 0,0 c 0,-36.052 -29.226,-65.278 -65.278,-65.278 -36.052,0 -65.278,29.226 -65.278,65.278 0,36.052 29.226,65.278 65.278,65.278 C -29.226,65.278 0,36.052 0,0 Z"
           style="fill:none;stroke:#514557;stroke-width:0.25;stroke-linecap:butt;stroke-linejoin:miter;stroke-miterlimit:10;stroke-dasharray:none;stroke-opacity:1"
           id="path1336" />
      </g>
      <g
         id="g1338"
         transform="translate(423.6158,504.9356)">
        <path
           d="m 0,0 c 0,-5.751 -4.662,-10.413 -10.413,-10.413 -5.751,0 -10.413,4.662 -10.413,10.413 0,5.751 4.662,10.413 10.413,10.413 C -4.662,10.413 0,5.751 0,0"
           style="fill:#ffffff;fill-opacity:1;fill-rule:nonzero;stroke:none"
           id="path1340" />
      </g>
      <g
         id="g1342"
         transform="translate(423.6158,504.9356)">
        <path
           d="m 0,0 c 0,-5.751 -4.662,-10.413 -10.413,-10.413 -5.751,0 -10.413,4.662 -10.413,10.413 0,5.751 4.662,10.413 10.413,10.413 C -4.662,10.413 0,5.751 0,0 Z"
           style="fill:none;stroke:#514557;stroke-width:0.25;stroke-linecap:butt;stroke-linejoin:miter;stroke-miterlimit:10;stroke-dasharray:none;stroke-opacity:1"
           id="path1344" />
      </g>
      <g
         id="g1346"
         transform="translate(385.954,509.9926)">
        <path
           d="m 0,0 c 0,-4.067 -3.297,-7.364 -7.364,-7.364 -4.067,0 -7.364,3.297 -7.364,7.364 0,4.067 3.297,7.364 7.364,7.364 C -3.297,7.364 0,4.067 0,0"
           style="fill:#ffffff;fill-opacity:1;fill-rule:nonzero;stroke:none"
           id="path1348" />
      </g>
      <g
         id="g1350"
         transform="translate(385.954,509.9926)">
        <path
           d="m 0,0 c 0,-4.067 -3.297,-7.364 -7.364,-7.364 -4.067,0 -7.364,3.297 -7.364,7.364 0,4.067 3.297,7.364 7.364,7.364 C -3.297,7.364 0,4.067 0,0 Z"
           style="fill:none;stroke:#514557;stroke-width:0.25;stroke-linecap:butt;stroke-linejoin:miter;stroke-miterlimit:10;stroke-dasharray:none;stroke-opacity:1"
           id="path1352" />
      </g>
      <g
         id="g1354"
         transform="translate(509.556,591.9188)">
        <path
           d="m 0,0 c 2.187,-2.344 2.06,-6.018 -0.285,-8.206 -2.344,-2.187 -6.018,-2.06 -8.206,0.285 -2.187,2.344 -2.059,6.018 0.285,8.206 C -5.861,2.472 -2.187,2.345 0,0 m 2.992,-24.888 c 8.173,7.625 8.618,20.432 0.992,28.605 -7.625,8.174 -20.432,8.618 -28.605,0.992 -6.991,-6.522 -8.322,-16.833 -3.791,-24.795 l -4.118,-3.842 0.984,-6.835 -6.39,1.791 -5.153,-4.807 0.984,-6.835 -6.391,1.791 -4.428,-4.132 0.599,-4.166 -3.894,1.092 -2.578,-2.405 -0.386,-6.331 9.442,-2.376 30.637,28.583 c 7.207,-3.232 15.958,-2.057 22.096,3.67"
           style="fill:#263238;fill-opacity:1;fill-rule:nonzero;stroke:none"
           id="path1356" />
      </g>
      <g
         id="g1358"
         transform="translate(509.556,591.9189)">
        <path
           d="m 0,0 c -0.037,-0.038 -0.379,0.353 -1.153,0.83 -0.761,0.466 -2.049,0.982 -3.654,0.802 -1.576,-0.148 -3.449,-1.159 -4.397,-3.061 -0.978,-1.845 -0.79,-4.542 0.898,-6.319 1.656,-1.809 4.334,-2.183 6.243,-1.335 1.963,0.815 3.101,2.613 3.358,4.175 0.291,1.589 -0.135,2.909 -0.547,3.7 C 0.326,-0.403 -0.041,-0.034 0,0 0.013,0.012 0.108,-0.074 0.278,-0.251 0.452,-0.424 0.681,-0.71 0.92,-1.113 1.399,-1.901 1.909,-3.27 1.648,-4.968 1.421,-6.635 0.238,-8.603 -1.88,-9.511 c -1.036,-0.455 -2.273,-0.627 -3.489,-0.392 -1.221,0.213 -2.403,0.857 -3.307,1.81 -0.888,0.968 -1.448,2.191 -1.575,3.423 -0.15,1.229 0.107,2.452 0.632,3.453 1.053,2.05 3.097,3.094 4.776,3.205 1.713,0.143 3.044,-0.46 3.796,-0.993 0.386,-0.267 0.655,-0.515 0.816,-0.7 C -0.066,0.112 0.013,0.012 0,0"
           style="fill:#263238;fill-opacity:1;fill-rule:nonzero;stroke:none"
           id="path1360" />
      </g>
      <g
         id="g1362"
         transform="translate(512.5481,567.0305)">
        <path
           d="m 0,0 c 0,0 -0.093,-0.099 -0.291,-0.28 -0.213,-0.19 -0.508,-0.452 -0.891,-0.794 -0.833,-0.639 -2.079,-1.605 -3.917,-2.49 -1.831,-0.878 -4.252,-1.689 -7.193,-1.933 -2.927,-0.22 -6.393,0.154 -9.867,1.688 l 0.167,0.027 c -7.897,-7.394 -18.402,-17.229 -30.586,-28.637 l -0.09,-0.085 -0.121,0.031 c -2.964,0.743 -6.166,1.545 -9.444,2.367 l -0.19,0.048 0.011,0.196 c 0.119,1.974 0.25,4.138 0.382,6.331 l 0.005,0.096 0.071,0.066 c 0.8,0.747 1.685,1.574 2.576,2.406 l 0.1,0.094 0.132,-0.037 c 1.213,-0.34 2.55,-0.713 3.895,-1.09 l -0.31,-0.272 c -0.187,1.301 -0.393,2.729 -0.601,4.166 l -0.019,0.128 0.095,0.089 c 1.392,1.299 2.903,2.71 4.427,4.133 l 0.103,0.096 0.136,-0.038 c 2.017,-0.565 4.195,-1.175 6.391,-1.789 l -0.318,-0.279 c -0.312,2.167 -0.646,4.492 -0.984,6.835 l -0.019,0.131 0.097,0.09 c 0.431,0.402 0.898,0.838 1.366,1.274 1.269,1.185 2.532,2.363 3.786,3.533 l 0.104,0.097 0.137,-0.039 c 2.149,-0.602 4.279,-1.2 6.39,-1.792 l -0.317,-0.278 c -0.33,2.302 -0.658,4.582 -0.981,6.836 l -0.019,0.129 0.095,0.089 c 1.387,1.293 2.761,2.573 4.12,3.84 L -31.618,4.68 c -1.595,2.866 -2.513,6.046 -2.631,9.215 -0.066,1.581 0.028,3.159 0.335,4.683 0.263,1.533 0.753,3.003 1.348,4.402 2.427,5.623 7.326,9.67 12.581,11.298 5.284,1.677 10.824,1.005 15.151,-1.144 4.392,-2.12 7.503,-5.683 9.316,-9.307 C 6.253,20.146 6.771,16.386 6.472,13.204 6.209,10.006 5.25,7.372 4.201,5.411 4.072,5.164 3.947,4.924 3.825,4.691 3.682,4.47 3.543,4.256 3.409,4.049 3.134,3.64 2.904,3.238 2.641,2.9 2.095,2.242 1.676,1.651 1.263,1.24 0.86,0.838 0.551,0.529 0.328,0.306 0.116,0.098 0,0 0,0 c 0,0 0.095,0.12 0.296,0.338 0.215,0.229 0.513,0.548 0.901,0.961 0.4,0.42 0.806,1.017 1.338,1.679 0.256,0.338 0.478,0.742 0.745,1.152 0.131,0.207 0.265,0.421 0.404,0.642 0.118,0.233 0.24,0.472 0.365,0.719 1.016,1.957 1.939,4.572 2.174,7.733 0.272,3.145 -0.266,6.848 -2.027,10.462 -1.804,3.556 -4.88,7.045 -9.197,9.106 -4.254,2.093 -9.687,2.732 -14.854,1.076 -5.138,-1.607 -9.921,-5.579 -12.282,-11.075 -0.578,-1.368 -1.055,-2.804 -1.309,-4.302 -0.298,-1.489 -0.387,-3.031 -0.321,-4.574 0.12,-3.095 1.02,-6.197 2.578,-8.992 l 0.095,-0.171 -0.141,-0.132 c -1.358,-1.268 -2.73,-2.549 -4.117,-3.844 l 0.077,0.218 c 0.325,-2.254 0.654,-4.533 0.986,-6.835 l 0.055,-0.382 -0.372,0.104 c -2.111,0.592 -4.242,1.188 -6.39,1.79 l 0.24,0.059 c -1.254,-1.17 -2.517,-2.349 -3.787,-3.533 -0.467,-0.437 -0.934,-0.872 -1.365,-1.274 l 0.077,0.22 c 0.337,-2.343 0.672,-4.668 0.983,-6.835 l 0.055,-0.383 -0.372,0.104 c -2.196,0.616 -4.373,1.227 -6.39,1.793 l 0.238,0.058 c -1.525,-1.422 -3.038,-2.832 -4.43,-4.13 l 0.076,0.217 c 0.206,-1.438 0.411,-2.865 0.598,-4.167 l 0.053,-0.374 -0.363,0.102 c -1.346,0.378 -2.681,0.754 -3.894,1.094 l 0.232,0.057 c -0.893,-0.832 -1.779,-1.658 -2.579,-2.403 l 0.076,0.161 c -0.136,-2.192 -0.269,-4.356 -0.391,-6.33 l -0.178,0.244 c 3.276,-0.828 6.477,-1.637 9.439,-2.385 l -0.21,-0.054 c 12.224,11.364 22.764,21.162 30.687,28.528 l 0.075,0.069 0.092,-0.042 c 3.413,-1.529 6.83,-1.922 9.725,-1.729 2.908,0.218 5.313,0.997 7.139,1.844 1.835,0.855 3.088,1.793 3.935,2.408 0.394,0.327 0.696,0.578 0.916,0.76 C -0.113,-0.079 0,0 0,0"
           style="fill:#263238;fill-opacity:1;fill-rule:nonzero;stroke:none"
           id="path1364" />
      </g>
      <g
         id="g1366"
         transform="translate(508.8778,594.2161)">
        <path
           d="m 0,0 c 2.187,-2.345 2.06,-6.019 -0.285,-8.206 -2.344,-2.187 -6.018,-2.06 -8.205,0.285 -2.188,2.344 -2.06,6.018 0.284,8.206 C -5.861,2.472 -2.187,2.344 0,0 m 2.992,-24.889 c 8.173,7.626 8.618,20.433 0.992,28.606 -7.625,8.173 -20.432,8.617 -28.605,0.992 -6.991,-6.522 -8.322,-16.833 -3.791,-24.795 l -0.005,-0.005 -4.113,-3.837 0.984,-6.835 -6.39,1.791 -5.153,-4.807 0.984,-6.836 -6.391,1.792 -4.428,-4.132 0.599,-4.166 -3.894,1.092 -2.578,-2.405 -0.386,-6.331 9.442,-2.376 30.637,28.583 c 7.207,-3.232 15.958,-2.057 22.096,3.669"
           style="fill:#5582ff;fill-opacity:1;fill-rule:nonzero;stroke:none"
           id="path1368" />
      </g>
      <g
         id="g1370"
         transform="translate(508.8778,594.2161)">
        <path
           d="m 0,0 c 2.187,-2.345 2.06,-6.019 -0.285,-8.206 -2.344,-2.187 -6.018,-2.06 -8.205,0.285 -2.188,2.344 -2.06,6.018 0.284,8.206 C -5.861,2.472 -2.187,2.344 0,0 m 2.992,-24.889 c 8.173,7.626 8.618,20.433 0.992,28.606 -7.625,8.173 -20.432,8.617 -28.605,0.992 -6.991,-6.522 -8.322,-16.833 -3.791,-24.795 l -0.005,-0.005 -4.113,-3.837 0.984,-6.835 -6.39,1.791 -5.153,-4.807 0.984,-6.836 -6.391,1.792 -4.428,-4.132 0.599,-4.166 -3.894,1.092 -2.578,-2.405 -0.386,-6.331 9.442,-2.376 30.637,28.583 c 7.207,-3.232 15.958,-2.057 22.096,3.669"
           style="fill:#5582ff;fill-opacity:1;fill-rule:nonzero;stroke:none"
           id="path1372" />
      </g>
      <g
         id="g1374"
         transform="translate(508.8778,594.2161)">
        <path
           d="m 0,0 c -0.037,-0.038 -0.379,0.354 -1.153,0.83 -0.761,0.466 -2.049,0.982 -3.654,0.802 -1.576,-0.148 -3.449,-1.159 -4.397,-3.061 -0.978,-1.845 -0.79,-4.542 0.898,-6.319 1.656,-1.809 4.335,-2.183 6.243,-1.335 1.963,0.815 3.101,2.613 3.358,4.175 0.291,1.589 -0.134,2.909 -0.547,3.7 C 0.326,-0.403 -0.041,-0.034 0,0 0.013,0.012 0.108,-0.074 0.278,-0.251 0.452,-0.424 0.681,-0.71 0.92,-1.113 1.399,-1.901 1.909,-3.27 1.648,-4.968 1.421,-6.636 0.238,-8.603 -1.88,-9.511 c -1.036,-0.455 -2.273,-0.627 -3.489,-0.392 -1.221,0.213 -2.403,0.857 -3.307,1.81 -0.888,0.968 -1.448,2.191 -1.575,3.423 -0.15,1.229 0.107,2.452 0.633,3.453 1.052,2.05 3.096,3.094 4.775,3.205 1.713,0.143 3.044,-0.46 3.797,-0.993 0.385,-0.267 0.654,-0.515 0.815,-0.7 C -0.066,0.112 0.013,0.012 0,0"
           style="fill:#5582ff;fill-opacity:1;fill-rule:nonzero;stroke:none"
           id="path1376" />
      </g>
      <g
         id="g1378"
         transform="translate(511.87,569.3276)">
        <path
           d="m 0,0 c 0,0 -0.093,-0.099 -0.291,-0.28 -0.213,-0.19 -0.508,-0.452 -0.892,-0.794 -0.833,-0.639 -2.078,-1.605 -3.917,-2.49 -1.83,-0.878 -4.251,-1.689 -7.192,-1.933 -2.927,-0.22 -6.393,0.154 -9.867,1.688 l 0.167,0.027 c -7.897,-7.394 -18.402,-17.229 -30.586,-28.637 l -0.09,-0.084 -0.121,0.03 c -2.964,0.743 -6.167,1.545 -9.444,2.367 l -0.191,0.048 0.012,0.196 c 0.119,1.974 0.249,4.138 0.381,6.331 l 0.006,0.096 0.071,0.066 c 0.8,0.747 1.685,1.574 2.576,2.406 l 0.1,0.094 0.132,-0.037 c 1.213,-0.339 2.55,-0.713 3.895,-1.09 l -0.31,-0.272 c -0.187,1.301 -0.394,2.729 -0.601,4.166 l -0.019,0.128 0.095,0.089 c 1.392,1.299 2.903,2.71 4.427,4.133 l 0.103,0.096 0.136,-0.038 c 2.017,-0.565 4.195,-1.175 6.391,-1.79 l -0.318,-0.278 c -0.312,2.167 -0.647,4.492 -0.984,6.835 l -0.019,0.131 0.097,0.09 c 0.431,0.402 0.898,0.838 1.365,1.274 1.27,1.185 2.533,2.363 3.787,3.533 l 0.104,0.097 0.137,-0.039 c 2.148,-0.602 4.279,-1.2 6.39,-1.792 l -0.317,-0.278 c -0.331,2.302 -0.658,4.582 -0.982,6.836 l -0.018,0.129 0.095,0.089 c 1.387,1.293 2.761,2.573 4.12,3.84 L -31.619,4.68 c -1.595,2.866 -2.512,6.046 -2.631,9.215 -0.065,1.581 0.029,3.159 0.336,4.683 0.262,1.533 0.753,3.003 1.347,4.402 2.428,5.623 7.327,9.67 12.582,11.298 5.284,1.677 10.824,1.005 15.151,-1.144 4.392,-2.12 7.503,-5.683 9.316,-9.307 C 6.253,20.146 6.771,16.386 6.472,13.204 6.209,10.006 5.25,7.372 4.201,5.411 4.072,5.164 3.947,4.924 3.825,4.691 3.682,4.47 3.543,4.256 3.409,4.049 3.134,3.64 2.904,3.237 2.641,2.901 2.095,2.242 1.676,1.651 1.263,1.24 0.86,0.838 0.551,0.529 0.327,0.306 0.116,0.098 0,0 0,0 c 0,0 0.095,0.12 0.296,0.338 0.215,0.229 0.513,0.548 0.901,0.961 0.4,0.42 0.806,1.017 1.338,1.679 0.256,0.338 0.477,0.742 0.745,1.152 0.131,0.207 0.265,0.421 0.404,0.642 0.118,0.233 0.24,0.472 0.364,0.719 1.017,1.957 1.939,4.572 2.175,7.733 0.271,3.145 -0.266,6.848 -2.028,10.461 -1.803,3.557 -4.879,7.046 -9.196,9.107 -4.254,2.093 -9.687,2.732 -14.854,1.076 -5.138,-1.607 -9.921,-5.579 -12.282,-11.075 -0.578,-1.368 -1.055,-2.804 -1.309,-4.302 -0.298,-1.489 -0.387,-3.031 -0.321,-4.574 0.12,-3.095 1.02,-6.197 2.578,-8.992 l 0.095,-0.171 -0.141,-0.132 c -1.358,-1.268 -2.731,-2.549 -4.117,-3.844 l 0.077,0.218 c 0.325,-2.254 0.654,-4.533 0.986,-6.835 l 0.055,-0.382 -0.372,0.104 c -2.111,0.592 -4.242,1.188 -6.391,1.79 l 0.241,0.059 c -1.254,-1.17 -2.517,-2.349 -3.787,-3.533 -0.468,-0.437 -0.935,-0.872 -1.366,-1.274 l 0.078,0.22 c 0.337,-2.343 0.672,-4.668 0.983,-6.835 l 0.055,-0.383 -0.372,0.104 c -2.196,0.616 -4.373,1.227 -6.39,1.793 l 0.238,0.058 c -1.526,-1.422 -3.038,-2.832 -4.43,-4.13 l 0.076,0.217 c 0.206,-1.438 0.411,-2.865 0.598,-4.166 l 0.053,-0.375 -0.364,0.102 c -1.345,0.378 -2.681,0.754 -3.893,1.094 l 0.232,0.057 c -0.893,-0.832 -1.779,-1.658 -2.58,-2.403 l 0.077,0.161 c -0.136,-2.192 -0.269,-4.356 -0.391,-6.33 l -0.179,0.244 c 3.276,-0.828 6.478,-1.636 9.44,-2.385 l -0.21,-0.054 c 12.224,11.364 22.764,21.162 30.687,28.528 l 0.075,0.069 0.092,-0.042 c 3.413,-1.529 6.83,-1.922 9.724,-1.729 2.909,0.218 5.314,0.997 7.14,1.844 1.835,0.855 3.088,1.793 3.935,2.408 0.394,0.327 0.696,0.578 0.915,0.76 C -0.113,-0.078 0,0 0,0"
           style="fill:#5582ff;fill-opacity:1;fill-rule:nonzero;stroke:none"
           id="path1380" />
      </g>
    </g>
  </g>
</svg>
