<?xml version="1.0" encoding="UTF-8" standalone="no"?>
<!-- Created with Inkscape (http://www.inkscape.org/) -->

<svg
   width="13.229167cm"
   height="30cm"
   viewBox="0 0 132.29166 300.00002"
   version="1.1"
   id="svg1329"
   inkscape:version="1.1.2 (0a00cf5339, 2022-02-04)"
   sodipodi:docname="register.svg"
   xmlns:inkscape="http://www.inkscape.org/namespaces/inkscape"
   xmlns:sodipodi="http://sodipodi.sourceforge.net/DTD/sodipodi-0.dtd"
   xmlns="http://www.w3.org/2000/svg"
   xmlns:svg="http://www.w3.org/2000/svg">
  <sodipodi:namedview
     id="namedview1331"
     pagecolor="#ffffff"
     bordercolor="#666666"
     borderopacity="1.0"
     inkscape:pageshadow="2"
     inkscape:pageopacity="0.0"
     inkscape:pagecheckerboard="0"
     inkscape:document-units="mm"
     showgrid="false"
     units="cm"
     width="500px"
     inkscape:zoom="0.64052329"
     inkscape:cx="281.80084"
     inkscape:cy="436.36196"
     inkscape:window-width="1866"
     inkscape:window-height="1016"
     inkscape:window-x="54"
     inkscape:window-y="27"
     inkscape:window-maximized="1"
     inkscape:current-layer="layer1"
     height="25cm" />
  <defs
     id="defs1326" />
  <g
     inkscape:label="Capa 1"
     inkscape:groupmode="layer"
     id="layer1">
    <g
       id="g1426"
       transform="matrix(0.26553289,0,0,0.26553289,0.60516507,-10.282872)">
	<g
   id="g1376">
		<ellipse
   class="st0"
   cx="219.16"
   cy="1135.52"
   rx="195.5"
   ry="23.75"
   id="ellipse1355" />

		<g
   id="g1373">
			<g
   id="g1363">
				<path
   class="st1"
   d="m 121.57,993.8 9.38,84.53 c 0,0 -5.07,23.21 -7.16,37.98 0,0 53.41,40.12 78.9,13.26 l -40.83,-46.69 0.72,-92.6 z"
   id="path1357" />

				<path
   class="st2"
   d="m 125.89,1103.61 c 11.54,21.45 60.51,29.18 72.44,25.78 2.82,-0.8 -0.81,-4.18 1.11,-4.92 15.28,2.71 44.84,17.97 20.96,24.49 -28.09,7.66 -44.39,-4.31 -63.52,-7.68 -19.14,-3.37 -39.11,-2.75 -36.59,-21.89 0.97,-7.31 3.3,-12.18 5.6,-15.78 z"
   id="path1359" />

				<path
   class="st2"
   d="m 147.55,1137.82 -2.89,5.47 c 0,0 -16.15,0.61 -20.4,-3.54 l -3.74,-13.36 c 0,-0.01 13.79,12.4 27.03,11.43 z"
   id="path1361" />

			</g>

			<g
   id="g1371">
				<path
   class="st1"
   d="m 230.67,993.8 9.38,84.53 c 0,0 -5.07,23.21 -7.16,37.98 0,0 53.41,40.12 78.9,13.26 l -40.83,-46.69 0.72,-92.6 z"
   id="path1365" />

				<path
   class="st2"
   d="m 234.99,1103.61 c 11.54,21.45 60.51,29.18 72.44,25.78 2.82,-0.8 -0.81,-4.18 1.11,-4.92 15.28,2.71 44.84,17.97 20.96,24.49 -28.09,7.66 -44.39,-4.31 -63.52,-7.68 -19.14,-3.37 -39.11,-2.75 -36.59,-21.89 0.97,-7.31 3.3,-12.18 5.6,-15.78 z"
   id="path1367" />

				<path
   class="st2"
   d="m 256.65,1137.82 -2.89,5.47 c 0,0 -16.15,0.61 -20.4,-3.54 l -3.74,-13.36 c 0,-0.01 13.79,12.4 27.03,11.43 z"
   id="path1369" />

			</g>

		</g>

		<path
   id="path278_2_"
   class="st3"
   d="M 315.98,606.83 C 313.6,501.44 268.58,456.09 268.58,456.09 h -62.22 -65.82 c 0,0 -43.91,28.01 -43.91,150.74 0,122.76 -3.91,122.44 18.28,391.6 h 57 L 206.4,609.48 c 0.03,-0.55 0.86,-0.52 0.86,0.03 l 10.13,388.91 c 0,0 63.69,0.77 63.84,0 4.11,-21.25 37.02,-291.02 34.75,-391.59" />

	</g>

	<g
   id="g1384">
		<path
   class="st3"
   d="m 427.26,285.89 -41.96,-11.9 c -2.11,-0.6 -2.88,-2.84 -1.74,-5 l 42.64,-80.32 c 1.15,-2.17 3.79,-3.44 5.9,-2.84 l 41.96,11.9 c 2.11,0.6 2.88,2.84 1.74,5 l -42.64,80.32 c -1.15,2.16 -3.79,3.43 -5.9,2.84 z"
   id="path1378" />

		<path
   class="st2"
   d="m 427.97,286.03 -39.41,-11.12 c -1.97,-0.58 -2.51,-3.08 -1.41,-5.16 l 40.99,-77.33 c 1.1,-2.08 3.6,-3.31 5.57,-2.73 l 39.25,11.46 c 1.97,0.58 2.35,2.48 1.25,4.56 l -40.67,77.58 c -1.1,2.09 -3.6,3.31 -5.57,2.74 z"
   id="path1380" />

		
			<ellipse
   transform="matrix(0.7686,-0.6398,0.6398,0.7686,-26.9598,344.2703)"
   class="st4"
   cx="462.38"
   cy="209.39999"
   rx="4.3000002"
   ry="3.3499999"
   id="ellipse1382" />

	</g>

	<path
   class="st5"
   d="m 452.94,271.53 c 0,0 11.26,-14.22 13,-35.82 0,0 0.73,-4.6 -3.86,-4.89 -2.06,-0.13 -3.93,1.45 -5.75,6.83 0,0 -5.83,14.63 -12.48,22.33"
   id="path1386" />

	<path
   class="st2"
   d="m 191.04,62.28 c 4.78,19.29 -28.83,51.13 -28.83,51.13 -47.65,6.6 -7,102.77 -7,102.77 l -20.21,0.13 -4.82,-16.24 -1.04,16.28 -8.82,0.05 -2.84,-23.23 C 115.82,215.38 98.6,216.23 98.6,216.23 113.33,198.11 83.95,185.22 79.82,131.92 79.87,13.26 191.04,62.28 191.04,62.28 Z"
   id="path1388" />

	<path
   id="path280_2_"
   class="st6"
   d="m 341.82,427.22 c -1.52,-1.52 -1.86,5.86 -3,4.03 L 258.26,329.03 c -10.34,-15.02 -20.41,-62.73 -3.11,-68.44 12.7,-4.18 35.89,13.7 42.04,25.6 l 74.25,97.09 -29.62,43.94" />

	<path
   class="st2"
   d="m 240.77,59.96 c 1.68,-0.66 -5.71,-10.08 -7.46,-10.5 -27.35,-6.63 -85.28,-13.84 -110.97,35.21 -18.88,36.05 7.2,99.43 53.47,115.86 44.08,15.65 26.66,-125.5 26.66,-125.5 z"
   id="path1391" />

	<path
   id="path308_2_"
   class="st7"
   d="m 173.52,154.51 54.7,2.41 -3.25,86.6 c 16.55,4.35 26.32,10.24 26.32,10.24 l -43.96,38.27 -69.37,-43.51 c 11.34,-4.24 22.17,-6.81 32.34,-8.21 z" />

	<path
   id="path310_2_"
   class="st2"
   d="m 171.4,158.5 c 0,0 3.16,65.59 53.75,66.55 l 1.39,-32.73 z" />

	<path
   id="path314_2_"
   class="st8"
   d="m 239.33,151.63 c -0.42,10.54 7.78,19.42 18.32,19.84 10.54,0.42 19.42,-7.79 19.84,-18.33 0.42,-10.54 -7.79,-19.42 -18.33,-19.83 -10.53,-0.43 -19.41,7.78 -19.83,18.32" />

	<path
   id="path316_2_"
   class="st9"
   d="m 232.93,63.11 c 13.46,0.54 37.4,25.56 36.5,48.37 l -2.1,53.14 c -1.23,30.9 -27.26,48.54 -58.17,47.32 -22.91,-0.91 -48.09,-23.07 -53.03,-49.4 -1.9,0.5 -3.87,0.83 -5.94,0.75 -11.12,-0.45 -19.77,-9.81 -19.33,-20.93 0.45,-11.11 9.81,-19.77 20.93,-19.32 1.59,0.06 3.11,0.35 4.59,0.76 l 1.01,-25.27 c 0.53,-13.45 11.98,-24.03 25.43,-23.49 z" />

	<path
   id="path322_2_"
   class="st10"
   d="m 236.75,156.41 0.66,12.14 c 0,0 -0.97,6.35 -9.95,3.54" />

	<path
   class="st3"
   d="m 175.7,134.04 8.34,-0.2 c 7.18,-2.41 15.06,-2.73 21.81,-2.28 6.6,0.44 12.11,1.61 14.78,2.26 0,0 5.97,0.82 12.37,0.82 2.65,0 5.38,-0.13 7.79,-0.54 2.71,-0.91 16.06,-4.97 27.79,-1.09 1.34,0.44 2.63,0.98 3.89,1.63 0,0 0.78,0.15 0.76,2.45 v 2.41 c 0,0 0,0.3 -0.11,0.7 -0.13,0.46 -0.44,1.06 -1.15,1.45 0,0 -1.19,0.78 -1.84,4.58 l -1.63,6.88 c 0,0 -0.22,0.82 -0.8,1.95 v 0.04 c -1.37,2.8 -4.75,7.73 -11.85,8.51 0,0 -9.6,1.8 -15.17,-8.12 0,0 -0.61,-1 -1.35,-2.6 l -0.02,-0.02 v -0.02 c -0.65,-1.48 -1.43,-3.52 -1.89,-5.79 -1.02,-0.98 -6.1,-5.34 -11.4,-0.09 -1.21,4.77 -4.15,8.51 -4.15,8.51 -0.28,0.39 -0.57,0.78 -0.87,1.13 -5.56,6.79 -13.65,7.23 -16.85,7.1 -0.87,-0.04 -1.39,-0.11 -1.39,-0.11 -8.88,-0.78 -13.15,-5.64 -14.89,-8.46 -0.74,-1.21 -1.04,-2.04 -1.04,-2.04 l -2.06,-6.88 c -0.82,-3.8 -2.32,-4.58 -2.32,-4.58 -0.04,-0.02 -0.06,-0.06 -0.11,-0.07 l -7.51,-0.78 -6.4,-0.65 c -0.93,-2.91 -3.63,-5.82 -3.63,-5.82 z m 63.6,10.31 c 0.17,1.02 0.41,2.02 0.69,3 0.7,2.56 1.76,4.99 3.12,7.25 1.82,3.04 4.43,4.93 7.68,5.75 2.56,0.65 5.1,0.48 7.66,-0.11 3.15,-0.7 5.4,-2.69 6.55,-5.91 1.5,-4.17 2.37,-8.51 2.26,-13.04 -0.07,-2.41 -1.11,-4.06 -3.06,-5.06 -0.63,-0.32 -1.3,-0.57 -1.97,-0.76 -2.87,-0.78 -5.8,-1 -8.03,-1.13 -0.72,-0.02 -1.41,-0.02 -2.08,0 h -0.02 c -3.41,0.09 -6.04,0.72 -8.77,2 -3.4,1.58 -4.72,4.08 -4.03,8.01 z m -39.77,15.89 c 1.65,0.32 3.32,0.5 4.97,0.5 1.56,0.06 3.12,-0.07 4.67,-0.39 3.19,-0.63 5.9,-1.93 8.01,-3.91 0.61,-0.56 1.17,-1.17 1.67,-1.84 2.35,-3.13 3.97,-6.58 4.78,-10.25 0.85,-3.93 -0.8,-6.43 -5.08,-8.01 -3.86,-1.43 -7.58,-2.06 -12.72,-2.02 -0.32,0 -0.63,0 -0.96,0.02 -2.8,0.13 -6.51,0.35 -10.12,1.13 -0.83,0.19 -1.69,0.45 -2.47,0.76 -2.47,1 -3.78,2.65 -3.86,5.06 -0.13,4.52 0.95,8.86 2.84,13.04 0.15,0.35 0.33,0.67 0.52,0.98 1.53,2.65 4.19,4.3 7.75,4.93 z"
   id="path1398" />

	<path
   id="path318_2_"
   class="st2"
   d="m 217.73,149.37 c -0.26,2.32 -2.35,3.98 -4.66,3.73 -2.32,-0.26 -3.99,-2.35 -3.73,-4.66 0.26,-2.32 2.35,-3.99 4.66,-3.73 2.32,0.25 3.99,2.34 3.73,4.66 z" />

	<path
   id="path320_2_"
   class="st2"
   d="m 260.07,149.37 c -0.26,2.32 -2.35,3.98 -4.66,3.73 -2.32,-0.26 -3.98,-2.35 -3.73,-4.66 0.26,-2.32 2.35,-3.99 4.66,-3.73 2.32,0.25 3.99,2.34 3.73,4.66 z" />

	<path
   class="st2"
   d="m 214.68,46.68 c 0,0 72.07,-3.1 64.58,72.46 l -21.85,-0.75 c 0,0 2.25,-19.61 -6.46,-25.22 0,0 2.16,13.68 -0.49,23.96 h -28.78 l -4.84,-20.74 -2.17,20.74 c 0,0 -29.03,4.38 -51.61,-5.45 0,0.01 -11.98,-65.01 51.62,-65 z"
   id="path1402" />

	<path
   class="st2"
   d="m 184.78,97.53 c 0,0 -13.3,38.76 -9.99,60.97 0,0 -38.81,-36.02 -19.11,-80.64 z"
   id="path1404" />

	<path
   class="st3"
   d="m 286.65,305.25 c 0,0 1.3,-34.57 -11.96,-41.74 -17.62,-9.53 -43.45,-17.31 -43.45,-17.31 0,0 -5.19,25.68 -8.64,30.59 -3.45,4.91 -10.98,4.72 -17.31,1.13 -8.01,-4.55 -41.42,-36.58 -41.42,-36.58 0,0 -53.09,9.06 -74.79,27 -6.31,5.21 -10.34,10.03 -19.9,20.11 17.66,8.57 27.96,27.46 42.04,41.4 2,1.98 3.34,4.32 1.97,5.95 3.97,11.25 17.71,48.8 46.03,87.29 0,0 35.04,16.93 104.6,2.15 0,0 32.05,-48.99 32.05,-75.95 0,-26.94 -9.22,-44.04 -9.22,-44.04 z"
   id="path1406" />

	<path
   id="path284_2_"
   class="st3"
   d="m 235.8,272.53 c 0,0 -13.85,33.78 11.92,71.65 l 67.22,-43.23 c 0,0 -20.25,-45.58 -56.58,-44.82 z" />

	<path
   class="st2"
   d="m 230.72,244.87 c 0,0 26.58,63.79 3.4,97.8 0,0 -22.44,-46.8 -70.79,-101.95 0,0 -18.5,1.86 -28.74,5.01 -10.42,3.21 -25.21,10.85 -25.21,10.85 0,0 59.36,62.32 12.19,100.65 0,0 15.36,33.7 16.25,60.89 0.97,29.58 -8.6,22.16 -25.79,82.68 l 108.5,44.3 13.59,-83.3 11.15,83.3 L 298,507.55 278.45,406.03 c 0,0 36.49,-47.82 10.81,-103.77 l -24.25,-46.11 c 0,0 -14.42,-5.38 -19.26,-6.84 -4.72,-1.44 -15.03,-4.44 -15.03,-4.44 z"
   id="path1409" />

	<path
   class="st6"
   d="m 329.24,388.49 76.38,-113.57 c 10.36,-16.22 3.71,-50.24 19.57,-56.59 18.3,-7.32 30.18,7.43 33.83,17.19 4.97,13.25 4.1,21.94 -5.88,36.93 -6.07,9.11 -14.98,14.8 -23.67,16.11 l -47.3,127.3 c -7.39,20.19 -32.89,26.31 -48.59,11.67 -10.88,-10.14 -12.73,-26.74 -4.34,-39.04 z"
   id="path1411" />

	<g
   id="g1419">
		<path
   class="st4"
   d="m 219.5,391.75 c -3.05,-0.15 -6.09,-0.29 -9.14,-0.44 -3.04,-0.15 -6.09,-0.29 -9.14,-0.44 -0.5,-0.02 -1.08,-0.1 -1.68,-0.19 0.03,-1.03 0.06,-2.06 0.1,-3.09 0.03,-0.95 -0.39,-2.95 0.68,-3.46 0.49,-0.23 1.05,-0.19 1.59,-0.14 2.47,0.2 4.95,0.4 7.42,0.6 1.9,0.15 4.88,-0.19 6.31,1.3 1.5,1.55 2.67,3.93 3.86,5.86 z"
   id="path1413" />

		<path
   class="st4"
   d="m 199.55,390.68 c 0.6,0.08 1.17,0.16 1.68,0.19 3.05,0.15 6.09,0.3 9.14,0.44 3.05,0.15 6.09,0.29 9.14,0.44 3.17,0.15 6.35,0.31 9.52,0.46 6.6,0.32 13.2,0.64 19.8,0.96 2.35,0.12 4.7,0.23 7.05,0.34 0.95,0.05 1.9,0.1 2.84,0.14 1.6,0.08 3.34,0.37 4.94,0.24 1.25,-0.11 2.25,-0.61 3.4,0.31 0.84,0.67 1.29,1.73 1.44,2.8 0.15,1.07 0.02,2.14 -0.09,3.21 -0.1,0.85 -0.2,1.72 -0.53,2.51 -0.71,1.7 -2.26,1.91 -3.9,1.8 -0.95,-0.06 -1.92,-0.23 -2.78,-0.27 -3.17,-0.15 -6.33,-0.31 -9.5,-0.46 -6.33,-0.31 -12.67,-0.61 -19,-0.92 -12,-0.58 -23.99,-1.17 -35.99,-1.74 -0.67,-0.04 -1.34,-0.07 -2.01,-0.1 -0.25,-0.01 -0.5,-0.02 -0.76,-0.04 -0.58,-0.06 -1.26,-0.53 -1.5,-1.06 -0.25,-0.52 -0.31,-1.12 -0.35,-1.69 -0.11,-1.27 -0.2,-2.55 0.02,-3.79 0.22,-1.25 0.78,-2.48 1.76,-3.28 1.39,-1.14 3.71,-0.77 5.68,-0.49 z"
   id="path1415" />

		<path
   class="st11"
   d="m 263.97,404.52 c -1.37,6.5 -15.84,78.73 -16.6,82.35 -0.61,2.88 -1.1,6.43 -3.26,8.72 -1.06,1.12 -3.33,0.46 -4.76,0.34 -4.24,-0.36 -8.48,-0.73 -12.72,-1.09 -5.59,-0.48 -11.18,-0.96 -16.76,-1.44 -2.75,-0.24 -5.53,-0.36 -8.26,-0.71 -2.16,-0.28 -2.42,-1.48 -2.43,-3.47 -0.02,-1.93 -0.11,-3.86 -0.16,-5.79 -0.11,-3.87 -0.22,-7.73 -0.33,-11.59 -0.22,-7.82 -0.44,-15.63 -0.66,-23.45 -0.44,-15.75 -0.88,-31.5 -1.33,-47.25 12,0.57 23.99,1.16 35.99,1.74 6.34,0.31 12.67,0.61 19,0.92 3.17,0.16 6.33,0.31 9.5,0.46 0.86,0.03 1.83,0.2 2.78,0.26 z"
   id="path1417" />

	</g>

	<path
   id="path290_2_"
   class="st12"
   d="m 108.01,275.04 c 2.38,0.05 6.05,3.2 7.85,4.48 10.6,7.52 13.61,20.68 7.48,31.73 l -33.72,100.6 105.63,18.09 c 5.57,-2.66 12.31,-4 19.49,-3.48 17.59,1.29 31.01,13.18 29.97,26.56 -1.04,13.38 -16.15,23.18 -33.75,21.89 -14.22,-1.04 -25.71,-9.02 -29.04,-19.1 L 57.24,462.39 C 36.05,463.62 20.28,444.1 27.19,425.2 c 0.65,-1.78 1.49,-3.45 2.47,-5.02 0,-0.01 0,-0.01 0,-0.02 L 66.59,304.1 c 5.5,-13.92 20.29,-30.02 36.95,-29.68 z" />

	<path
   id="path294_2_"
   class="st3"
   d="m 109.37,263.14 c 0,0 -22.92,-4.65 -49.94,37.81 l 63.09,43.83 c 0,0 26.52,-28.01 -2.61,-71.77 l -7.3,-6.8 z" />

	<path
   id="path324_2_"
   class="st2"
   d="m 195.99,127.29 c 0.26,0.05 0.54,0.09 0.83,0.09 l 20.3,-0.05 c 2.26,-0.01 4.09,-1.85 4.09,-4.12 0,-2.27 -1.83,-4.09 -4.11,-4.1 l -20.3,0.07 c -2.27,0.01 -4.1,1.85 -4.09,4.12 0.01,1.98 1.41,3.63 3.29,4.01 z" />

	<path
   id="path326_2_"
   class="st2"
   d="m 244.88,128.12 c 0.27,0.05 0.55,0.09 0.82,0.09 l 12.41,-0.04 c 2.27,0 4.1,-1.84 4.09,-4.11 -0.01,-2.27 -1.85,-4.1 -4.11,-4.09 l -12.41,0.04 c -2.27,0.01 -4.11,1.85 -4.1,4.12 0.01,1.98 1.41,3.63 3.29,4.01 z" />

	<path
   id="path336_2_"
   class="st13"
   d="m 207.25,180.72 c 0,0 2.5,9.82 17.55,11.05" />

</g>
  </g>
  <style
     type="text/css"
     id="style1353">
	.st0{opacity:0.1;}
	.st1{fill:#FFFFFF;stroke:#514557;stroke-width:0.3306;}
	.st2{fill:#514557;}
	.st3{fill:#5582FF;}
	.st4{fill:#FFFFFF;}
	.st5{fill:#FFFFFF;stroke:#514557;stroke-width:0.3132;}
	.st6{fill:#FFFFFF;stroke:#514557;stroke-width:0.354;}
	.st7{fill:#FFFFFF;stroke:#514557;stroke-width:0.3367;}
	.st8{fill:#FFFFFF;stroke:#514557;stroke-width:0.3051;}
	.st9{fill:#FFFFFF;stroke:#514557;stroke-width:0.3551;}
	.st10{fill:none;stroke:#514557;stroke-width:0.1608;stroke-linecap:round;stroke-linejoin:round;stroke-miterlimit:10;}
	.st11{fill:#F4AE05;}
	.st12{fill:#FFFFFF;stroke:#514557;stroke-width:0.3399;}
	.st13{fill:none;stroke:#514557;stroke-width:0.1708;stroke-linecap:round;stroke-linejoin:round;stroke-miterlimit:10;}
	.st14{fill:#FFFFFF;stroke:#514557;stroke-width:0.3425;}
	.st15{opacity:0.15;fill:#1C1C1B;}
	.st16{fill:#FFFFFF;stroke:#514557;stroke-width:0.3404;}
	.st17{fill:#FFFFFF;stroke:#514557;stroke-width:0.0715;}
	.st18{opacity:0.8;fill:#514557;}
	.st19{fill:#FFFFFF;stroke:#514557;stroke-width:0.2702;}
	.st20{fill:none;stroke:#514557;stroke-width:0.1489;stroke-linecap:round;stroke-linejoin:round;stroke-miterlimit:10;}
	.st21{fill:#FFFFFF;stroke:#514557;stroke-width:0.25;stroke-miterlimit:10;}
	.st22{fill:#263238;}
	.st23{fill:none;}
</style>
</svg>
