<?xml version="1.0" encoding="UTF-8" standalone="no"?>
<!-- Created with Inkscape (http://www.inkscape.org/) -->

<svg
   width="500"
   height="790"
   viewBox="0 0 132.29166 209.02084"
   version="1.1"
   id="svg1329"
   inkscape:version="1.1.2 (0a00cf5339, 2022-02-04)"
   sodipodi:docname="register.svg"
   xmlns:inkscape="http://www.inkscape.org/namespaces/inkscape"
   xmlns:sodipodi="http://sodipodi.sourceforge.net/DTD/sodipodi-0.dtd"
   xmlns="http://www.w3.org/2000/svg"
   xmlns:svg="http://www.w3.org/2000/svg">
  <sodipodi:namedview
     id="namedview1331"
     pagecolor="#ffffff"
     bordercolor="#666666"
     borderopacity="1.0"
     inkscape:pageshadow="2"
     inkscape:pageopacity="0.0"
     inkscape:pagecheckerboard="0"
     inkscape:document-units="mm"
     showgrid="false"
     units="px"
     width="500px"
     inkscape:zoom="0.64052329"
     inkscape:cx="397.33138"
     inkscape:cy="436.36196"
     inkscape:window-width="1862"
     inkscape:window-height="1016"
     inkscape:window-x="58"
     inkscape:window-y="27"
     inkscape:window-maximized="1"
     inkscape:current-layer="layer1" />
  <defs
     id="defs1326">
    <clipPath
       clipPathUnits="userSpaceOnUse"
       id="clipPath838">
      <path
         d="M 22.728,40.636 H 477.272 V 759.364 H 22.728 Z"
         id="path836" />
    </clipPath>
  </defs>
  <g
     inkscape:label="Capa 1"
     inkscape:groupmode="layer"
     id="layer1">
    <g
       id="g834"
       clip-path="url(#clipPath838)"
       transform="matrix(0.29335636,0,0,-0.29248303,-7.4437866,220.90617)">
      <g
         id="g840"
         transform="translate(315.976,193.1682)">
        <path
           d="m 0,0 c -2.383,105.391 -47.402,150.737 -47.402,150.737 h -62.224 -65.817 c 0,0 -43.908,-28.01 -43.908,-150.737 0,-122.764 -3.914,-122.437 18.279,-391.602 h 57.002 l 34.493,388.947 c 0.035,0.55 0.865,0.518 0.865,-0.035 l 10.126,-388.91 c 0,0 63.693,-0.772 63.842,0 4.105,21.262 37.023,291.033 34.745,391.602"
           style="fill:#5582ff;fill-opacity:1;fill-rule:nonzero;stroke:none"
           id="path842" />
      </g>
      <g
         id="g844"
         transform="translate(427.2607,514.1133)">
        <path
           d="m 0,0 -41.961,11.904 c -2.108,0.598 -2.885,2.838 -1.736,5.003 l 42.644,80.316 c 1.149,2.166 3.79,3.436 5.898,2.838 L 46.806,88.157 c 2.108,-0.598 2.885,-2.837 1.735,-5.003 L 5.898,2.838 C 4.749,0.672 2.108,-0.598 0,0"
           style="fill:#5582ff;fill-opacity:1;fill-rule:nonzero;stroke:none"
           id="path846" />
      </g>
      <g
         id="g848"
         transform="translate(427.9703,513.9739)">
        <path
           d="m 0,0 -39.408,11.117 c -1.972,0.576 -2.513,3.076 -1.408,5.16 L 0.17,93.605 c 1.105,2.085 3.599,3.308 5.57,2.732 L 44.987,84.876 c 1.971,-0.575 2.355,-2.475 1.25,-4.56 L 5.57,2.732 C 4.465,0.647 1.972,-0.576 0,0"
           style="fill:#514557;fill-opacity:1;fill-rule:nonzero;stroke:none"
           id="path850" />
      </g>
      <g
         id="g852"
         transform="translate(465.8141,589.597)">
        <path
           d="M 0,0 C -1.064,-2.007 -3.464,-3.184 -5.362,-2.63 -7.26,-2.076 -7.937,0 -6.873,2.007 -5.81,4.014 -3.409,5.191 -1.511,4.637 0.387,4.083 1.064,2.007 0,0"
           style="fill:#ffffff;fill-opacity:1;fill-rule:nonzero;stroke:none"
           id="path854" />
      </g>
      <g
         id="g856"
         transform="translate(452.9409,528.4708)">
        <path
           d="m 0,0 c 0,0 11.261,14.219 13,35.822 0,0 0.727,4.596 -3.857,4.894 -2.059,0.134 -3.929,-1.451 -5.75,-6.832 0,0 -5.825,-14.634 -12.48,-22.334"
           style="fill:#ffffff;fill-opacity:1;fill-rule:nonzero;stroke:#514557;stroke-width:0.313;stroke-linecap:butt;stroke-linejoin:miter;stroke-miterlimit:4;stroke-dasharray:none;stroke-opacity:1"
           id="path858" />
      </g>
      <g
         id="g860"
         transform="translate(191.0438,737.7175)">
        <path
           d="m 0,0 c 4.784,-19.294 -28.826,-51.128 -28.826,-51.128 -47.649,-6.597 -6.997,-102.774 -6.997,-102.774 l -20.224,-0.121 -4.819,16.24 -1.038,-16.276 -8.823,-0.052 -2.845,23.234 c -1.657,-22.21 -18.88,-23.058 -18.88,-23.058 14.728,18.122 -14.654,31.009 -18.777,84.308 C -111.178,49.025 0,0 0,0"
           style="fill:#514557;fill-opacity:1;fill-rule:nonzero;stroke:none"
           id="path862" />
      </g>
      <g
         id="g864"
         transform="translate(341.8216,372.7783)">
        <path
           d="M 0,0 C -1.519,1.524 -1.86,-5.861 -3.003,-4.03 L -83.559,98.189 c -10.338,15.025 -20.405,62.733 -3.107,68.44 12.697,4.181 35.885,-13.696 42.04,-25.603 L 29.628,43.934 0,0"
           style="fill:#ffffff;fill-opacity:1;fill-rule:nonzero;stroke:#514557;stroke-width:0.354;stroke-linecap:butt;stroke-linejoin:miter;stroke-miterlimit:4;stroke-dasharray:none;stroke-opacity:1"
           id="path866" />
      </g>
      <g
         id="g868"
         transform="translate(240.7676,740.0422)">
        <path
           d="m 0,0 c 1.679,0.66 -5.709,10.077 -7.462,10.501 -27.352,6.627 -85.284,13.835 -110.97,-35.208 -18.88,-36.047 7.203,-99.426 53.473,-115.859 44.078,-15.654 26.656,125.505 26.656,125.505 z"
           style="fill:#514557;fill-opacity:1;fill-rule:nonzero;stroke:none"
           id="path870" />
      </g>
      <g
         id="g872"
         transform="translate(173.5167,645.4923)">
        <path
           d="M 0,0 54.697,-2.415 51.448,-89.01 C 68.001,-93.363 77.77,-99.253 77.77,-99.253 l -43.964,-38.266 -69.365,43.508 c 11.342,4.24 22.168,6.808 32.337,8.207 z"
           style="fill:#ffffff;fill-opacity:1;fill-rule:nonzero;stroke:none"
           id="path874" />
      </g>
      <g
         id="g876"
         transform="translate(173.5167,645.4923)">
        <path
           d="M 0,0 54.697,-2.415 51.448,-89.01 C 68.001,-93.363 77.77,-99.253 77.77,-99.253 l -43.964,-38.266 -69.365,43.508 c 11.342,4.24 22.168,6.808 32.337,8.207 z"
           style="fill:none;stroke:#514557;stroke-width:0.337;stroke-linecap:butt;stroke-linejoin:miter;stroke-miterlimit:4;stroke-dasharray:none;stroke-opacity:1"
           id="path878" />
      </g>
      <g
         id="g880"
         transform="translate(171.3951,641.4995)">
        <path
           d="m 0,0 c 0,0 3.162,-65.586 53.754,-66.548 l 1.39,32.728 z"
           style="fill:#514557;fill-opacity:1;fill-rule:nonzero;stroke:none"
           id="path882" />
      </g>
      <g
         id="g884"
         transform="translate(239.332,648.3748)">
        <path
           d="m 0,0 c -0.422,-10.536 7.785,-19.418 18.321,-19.84 10.536,-0.416 19.417,7.791 19.84,18.326 C 38.576,9.022 30.37,17.904 19.834,18.321 9.298,18.743 0.416,10.536 0,0"
           style="fill:#ffffff;fill-opacity:1;fill-rule:nonzero;stroke:#514557;stroke-width:0.305;stroke-linecap:butt;stroke-linejoin:miter;stroke-miterlimit:4;stroke-dasharray:none;stroke-opacity:1"
           id="path886" />
      </g>
      <g
         id="g888"
         transform="translate(232.9334,736.8867)">
        <path
           d="m 0,0 c 13.456,-0.538 37.399,-25.557 36.496,-48.368 l -2.103,-53.135 c -1.231,-30.904 -27.255,-48.543 -58.165,-47.317 -22.905,0.913 -48.092,23.066 -53.026,49.401 -1.9,-0.505 -3.869,-0.834 -5.936,-0.752 -11.118,0.445 -19.77,9.814 -19.331,20.926 0.445,11.111 9.808,19.767 20.926,19.322 1.591,-0.063 3.114,-0.353 4.585,-0.762 l 1.006,25.268 c 0.533,13.45 11.98,24.029 25.431,23.49 z"
           style="fill:#ffffff;fill-opacity:1;fill-rule:nonzero;stroke:none"
           id="path890" />
      </g>
      <g
         id="g892"
         transform="translate(232.9334,736.8867)">
        <path
           d="m 0,0 c 13.456,-0.538 37.399,-25.557 36.496,-48.368 l -2.103,-53.135 c -1.231,-30.904 -27.255,-48.543 -58.165,-47.317 -22.905,0.913 -48.092,23.066 -53.026,49.401 -1.9,-0.505 -3.869,-0.834 -5.936,-0.752 -11.118,0.445 -19.77,9.814 -19.331,20.926 0.445,11.111 9.808,19.767 20.926,19.322 1.591,-0.063 3.114,-0.353 4.585,-0.762 l 1.006,25.268 c 0.533,13.45 11.98,24.029 25.431,23.49 z"
           style="fill:none;stroke:#514557;stroke-width:0.355;stroke-linecap:butt;stroke-linejoin:miter;stroke-miterlimit:4;stroke-dasharray:none;stroke-opacity:1"
           id="path894" />
      </g>
      <g
         id="g896"
         transform="translate(236.7507,643.5874)">
        <path
           d="m 0,0 0.657,-12.138 c 0,0 -0.968,-6.347 -9.95,-3.537"
           style="fill:none;stroke:#514557;stroke-width:0.161;stroke-linecap:round;stroke-linejoin:round;stroke-miterlimit:10;stroke-dasharray:none;stroke-opacity:1"
           id="path898" />
      </g>
      <g
         id="g900"
         transform="translate(199.526,639.7565)">
        <path
           d="m 0,0 c 1.65,-0.315 3.319,-0.501 4.969,-0.501 1.558,-0.055 3.115,0.075 4.673,0.39 3.189,0.63 5.896,1.928 8.01,3.912 0.612,0.557 1.168,1.168 1.669,1.836 2.355,3.134 3.968,6.582 4.784,10.254 0.853,3.931 -0.797,6.434 -5.081,8.01 -3.856,1.428 -7.583,2.058 -12.72,2.021 -0.315,0 -0.63,0 -0.964,-0.018 -2.8,-0.13 -6.508,-0.353 -10.124,-1.131 -0.834,-0.186 -1.687,-0.445 -2.466,-0.761 -2.466,-1.001 -3.783,-2.651 -3.857,-5.062 -0.13,-4.524 0.946,-8.863 2.837,-13.035 C -8.122,5.563 -7.936,5.247 -7.751,4.932 -6.212,2.281 -3.56,0.63 0,0 m 39.773,15.891 c 0.167,-1.02 0.408,-2.021 0.686,-3.004 0.705,-2.559 1.762,-4.988 3.115,-7.25 1.817,-3.041 4.432,-4.932 7.677,-5.748 2.559,-0.649 5.099,-0.482 7.658,0.111 3.152,0.705 5.396,2.689 6.545,5.915 1.502,4.172 2.374,8.511 2.262,13.035 -0.074,2.411 -1.112,4.061 -3.059,5.062 -0.63,0.316 -1.298,0.575 -1.966,0.761 -2.874,0.778 -5.803,1.001 -8.028,1.131 -0.723,0.018 -1.41,0.018 -2.077,0 h -0.019 c -3.411,-0.093 -6.044,-0.724 -8.77,-2.003 -3.393,-1.576 -4.71,-4.079 -4.024,-8.01 m -63.6,10.309 8.344,0.204 c 7.176,2.411 15.057,2.726 21.806,2.281 6.601,-0.445 12.108,-1.613 14.778,-2.262 0,0 5.971,-0.816 12.368,-0.816 2.651,0 5.377,0.13 7.788,0.538 2.707,0.908 16.057,4.969 27.794,1.094 1.336,-0.445 2.633,-0.983 3.894,-1.632 0,0 0.779,-0.148 0.761,-2.448 v -2.41 c 0,0 0,-0.297 -0.112,-0.705 -0.129,-0.463 -0.445,-1.057 -1.149,-1.446 0,0 -1.187,-0.779 -1.836,-4.58 L 68.977,7.139 c 0,0 -0.222,-0.816 -0.797,-1.947 V 5.155 c -1.372,-2.8 -4.747,-7.732 -11.849,-8.511 0,0 -9.604,-1.799 -15.167,8.121 0,0 -0.612,1.002 -1.354,2.596 L 39.792,7.38 v 0.018 c -0.649,1.484 -1.428,3.523 -1.892,5.786 -1.019,0.982 -6.1,5.34 -11.403,0.092 C 25.292,8.511 22.343,4.765 22.343,4.765 22.065,4.376 21.769,3.987 21.472,3.634 15.909,-3.152 7.825,-3.597 4.617,-3.467 3.746,-3.43 3.226,-3.356 3.226,-3.356 -5.655,-2.577 -9.92,2.281 -11.663,5.099 c -0.742,1.205 -1.038,2.04 -1.038,2.04 l -2.059,6.879 c -0.816,3.801 -2.317,4.58 -2.317,4.58 -0.037,0.019 -0.056,0.056 -0.112,0.074 l -7.509,0.779 -6.397,0.649 c -0.928,2.911 -3.635,5.822 -3.635,5.822 z"
           style="fill:#5582ff;fill-opacity:1;fill-rule:nonzero;stroke:none"
           id="path902" />
      </g>
      <g
         id="g904"
         transform="translate(217.7302,650.6345)">
        <path
           d="m 0,0 c -0.258,-2.317 -2.347,-3.983 -4.664,-3.725 -2.317,0.258 -3.989,2.346 -3.725,4.658 0.258,2.323 2.347,3.989 4.664,3.731 C -1.408,4.406 0.258,2.317 0,0"
           style="fill:#514557;fill-opacity:1;fill-rule:nonzero;stroke:none"
           id="path906" />
      </g>
      <g
         id="g908"
         transform="translate(260.0685,650.6345)">
        <path
           d="m 0,0 c -0.258,-2.317 -2.347,-3.983 -4.664,-3.725 -2.317,0.258 -3.983,2.346 -3.725,4.658 0.264,2.323 2.353,3.989 4.664,3.731 C -1.408,4.406 0.264,2.317 0,0"
           style="fill:#514557;fill-opacity:1;fill-rule:nonzero;stroke:none"
           id="path910" />
      </g>
      <g
         id="g912"
         transform="translate(214.6764,753.3218)">
        <path
           d="m 0,0 c 0,0 72.066,3.104 64.583,-72.462 l -21.848,0.745 c 0,0 2.248,19.606 -6.457,25.222 0,0 2.163,-13.684 -0.485,-23.963 H 7.008 L 2.172,-49.72 0,-70.458 c 0,0 -29.031,-4.379 -51.615,5.449 0,0 -11.985,65.016 51.615,65.009"
           style="fill:#514557;fill-opacity:1;fill-rule:nonzero;stroke:none"
           id="path914" />
      </g>
      <g
         id="g916"
         transform="translate(184.7836,702.4694)">
        <path
           d="m 0,0 c 0,0 -13.304,-38.755 -9.99,-60.97 0,0 -38.81,36.016 -19.11,80.642 z"
           style="fill:#514557;fill-opacity:1;fill-rule:nonzero;stroke:none"
           id="path918" />
      </g>
      <g
         id="g920"
         transform="translate(286.6495,494.7531)">
        <path
           d="m 0,0 c 0,0 1.304,34.566 -11.957,41.74 -17.619,9.531 -43.446,17.308 -43.446,17.308 0,0 -5.195,-25.682 -8.643,-30.592 -3.45,-4.914 -10.983,-4.721 -17.315,-1.126 -8.006,4.546 -41.421,36.575 -41.421,36.575 0,0 -53.091,-9.057 -74.793,-27.003 -6.306,-5.214 -10.34,-10.029 -19.902,-20.112 17.66,-8.566 27.961,-27.456 42.043,-41.402 2.004,-1.985 3.337,-4.323 1.971,-5.949 3.97,-11.246 17.713,-48.804 46.034,-87.293 0,0 35.036,-16.931 104.603,-2.149 0,0 32.05,48.989 32.05,75.946 C 9.224,-17.099 0,0 0,0"
           style="fill:#5582ff;fill-opacity:1;fill-rule:nonzero;stroke:none"
           id="path922" />
      </g>
      <g
         id="g924"
         transform="translate(235.7989,527.4655)">
        <path
           d="m 0,0 c 0,0 -13.849,-33.775 11.916,-71.655 l 67.222,43.234 c 0,0 -20.248,45.575 -56.584,44.818 z"
           style="fill:#5582ff;fill-opacity:1;fill-rule:nonzero;stroke:none"
           id="path926" />
      </g>
      <g
         id="g928"
         transform="translate(230.7156,555.1306)">
        <path
           d="m 0,0 c 0,0 26.581,-63.794 3.396,-97.798 0,0 -22.438,46.798 -70.791,101.951 0,0 -18.503,-1.856 -28.741,-5.009 -10.418,-3.209 -25.212,-10.852 -25.212,-10.852 0,0 59.361,-62.317 12.185,-100.653 0,0 15.363,-33.697 16.255,-60.894 0.97,-29.577 -8.6,-22.159 -25.791,-82.678 l 108.504,-44.298 13.591,83.299 11.151,-83.299 52.735,37.555 -19.546,101.52 c 0,0 36.485,47.816 10.813,103.773 l -24.251,46.114 c 0,0 -14.423,5.379 -19.256,6.841 C 10.314,-2.999 0,0 0,0"
           style="fill:#514557;fill-opacity:1;fill-rule:nonzero;stroke:none"
           id="path930" />
      </g>
      <g
         id="g932"
         transform="translate(329.2443,411.509)">
        <path
           d="m 0,0 76.382,113.568 c 10.362,16.225 3.712,50.244 19.567,56.586 18.297,7.319 30.175,-7.432 33.834,-17.189 4.968,-13.248 4.104,-21.942 -5.884,-36.928 -6.074,-9.114 -14.979,-14.799 -23.674,-16.11 L 52.926,-27.377 C 45.536,-47.569 20.036,-53.683 4.331,-39.043 -6.543,-28.901 -8.391,-12.298 0,0"
           style="fill:#ffffff;fill-opacity:1;fill-rule:nonzero;stroke:none"
           id="path934" />
      </g>
      <g
         id="g936"
         transform="translate(329.2443,411.509)">
        <path
           d="m 0,0 76.382,113.568 c 10.362,16.225 3.712,50.244 19.567,56.586 18.297,7.319 30.175,-7.432 33.834,-17.189 4.968,-13.248 4.104,-21.942 -5.884,-36.928 -6.074,-9.114 -14.979,-14.799 -23.674,-16.11 L 52.926,-27.377 C 45.536,-47.569 20.036,-53.683 4.331,-39.043 -6.543,-28.901 -8.391,-12.298 0,0 Z"
           style="fill:none;stroke:#514557;stroke-width:0.354;stroke-linecap:butt;stroke-linejoin:miter;stroke-miterlimit:4;stroke-dasharray:none;stroke-opacity:1"
           id="path938" />
      </g>
      <g
         id="g940"
         transform="translate(219.5044,408.2535)">
        <path
           d="m 0,0 c -3.047,0.148 -6.089,0.295 -9.136,0.443 -3.042,0.147 -6.089,0.294 -9.136,0.442 -0.503,0.023 -1.075,0.103 -1.678,0.186 0.032,1.03 0.063,2.059 0.099,3.088 0.03,0.951 -0.387,2.952 0.684,3.459 0.489,0.229 1.054,0.191 1.587,0.145 2.474,-0.202 4.948,-0.4 7.422,-0.602 1.905,-0.154 4.88,0.189 6.315,-1.305 C -2.36,4.311 -1.195,1.922 0,0"
           style="fill:#ffffff;fill-opacity:1;fill-rule:nonzero;stroke:none"
           id="path942" />
      </g>
      <g
         id="g944"
         transform="translate(199.5548,409.3247)">
        <path
           d="m 0,0 c 0.603,-0.083 1.174,-0.164 1.678,-0.186 3.047,-0.148 6.094,-0.295 9.136,-0.443 3.047,-0.147 6.089,-0.295 9.136,-0.442 3.171,-0.153 6.348,-0.307 9.52,-0.46 6.597,-0.323 13.2,-0.641 19.803,-0.96 2.351,-0.119 4.702,-0.233 7.054,-0.341 0.949,-0.051 1.899,-0.096 2.844,-0.141 1.599,-0.075 3.341,-0.371 4.936,-0.242 1.25,0.106 2.252,0.608 3.398,-0.309 0.844,-0.672 1.295,-1.732 1.443,-2.798 0.148,-1.065 0.024,-2.144 -0.094,-3.213 -0.099,-0.852 -0.2,-1.719 -0.534,-2.513 -0.71,-1.701 -2.265,-1.906 -3.903,-1.796 -0.948,0.061 -1.924,0.228 -2.776,0.27 -3.166,0.153 -6.332,0.306 -9.498,0.463 -6.333,0.306 -12.666,0.611 -19.004,0.917 -11.996,0.585 -23.992,1.169 -35.988,1.743 -0.669,0.037 -1.339,0.069 -2.009,0.1 -0.254,0.012 -0.503,0.023 -0.757,0.039 -0.579,0.061 -1.258,0.531 -1.504,1.058 -0.247,0.521 -0.306,1.115 -0.355,1.693 -0.11,1.266 -0.198,2.545 0.024,3.793 0.222,1.247 0.781,2.476 1.763,3.278 C -4.292,0.646 -1.972,0.279 0,0"
           style="fill:#ffffff;fill-opacity:1;fill-rule:nonzero;stroke:none"
           id="path946" />
      </g>
      <g
         id="g948"
         transform="translate(263.972,395.4805)">
        <path
           d="m 0,0 c -1.373,-6.502 -15.836,-78.73 -16.601,-82.35 -0.608,-2.882 -1.097,-6.432 -3.264,-8.716 -1.056,-1.119 -3.329,-0.464 -4.757,-0.341 -4.238,0.365 -8.481,0.73 -12.718,1.095 -5.588,0.481 -11.177,0.962 -16.759,1.443 -2.748,0.236 -5.526,0.361 -8.258,0.711 -2.16,0.279 -2.417,1.479 -2.433,3.472 -0.016,1.93 -0.11,3.861 -0.163,5.795 -0.11,3.866 -0.215,7.727 -0.325,11.594 -0.219,7.817 -0.438,15.628 -0.661,23.445 -0.443,15.749 -0.885,31.497 -1.327,47.246 C -55.27,2.819 -43.274,2.235 -31.279,1.65 -24.941,1.345 -18.608,1.039 -12.275,0.734 -9.109,0.576 -5.942,0.423 -2.776,0.27 -1.925,0.228 -0.949,0.061 0,0"
           style="fill:#f4ae05;fill-opacity:1;fill-rule:nonzero;stroke:none"
           id="path950" />
      </g>
      <g
         id="g952"
         transform="translate(108.0058,524.9601)">
        <path
           d="m 0,0 c 2.38,-0.05 6.049,-3.197 7.853,-4.477 10.596,-7.521 13.61,-20.676 7.482,-31.728 l -33.716,-100.603 105.626,-18.094 c 5.565,2.656 12.31,4.003 19.488,3.478 17.592,-1.285 31.011,-13.182 29.967,-26.557 -1.045,-13.381 -16.154,-23.176 -33.752,-21.89 -14.224,1.044 -25.714,9.015 -29.04,19.101 l -124.678,-6.585 c -21.186,-1.233 -36.958,18.286 -30.045,37.187 0.65,1.782 1.49,3.451 2.467,5.024 0.003,0.008 -0.004,0.009 0,0.017 l 36.93,116.059 c 5.495,13.92 20.293,30.025 36.952,29.684 z"
           style="fill:#ffffff;fill-opacity:1;fill-rule:nonzero;stroke:none"
           id="path954" />
      </g>
      <g
         id="g956"
         transform="translate(108.0058,524.9601)">
        <path
           d="m 0,0 c 2.38,-0.05 6.049,-3.197 7.853,-4.477 10.596,-7.521 13.61,-20.676 7.482,-31.728 l -33.716,-100.603 105.626,-18.094 c 5.565,2.656 12.31,4.003 19.488,3.478 17.592,-1.285 31.011,-13.182 29.967,-26.557 -1.045,-13.381 -16.154,-23.176 -33.752,-21.89 -14.224,1.044 -25.714,9.015 -29.04,19.101 l -124.678,-6.585 c -21.186,-1.233 -36.958,18.286 -30.045,37.187 0.65,1.782 1.49,3.451 2.467,5.024 0.003,0.008 -0.004,0.009 0,0.017 l 36.93,116.059 c 5.495,13.92 20.293,30.025 36.952,29.684 z"
           style="fill:none;stroke:#514557;stroke-width:0.34;stroke-linecap:butt;stroke-linejoin:miter;stroke-miterlimit:4;stroke-dasharray:none;stroke-opacity:1"
           id="path958" />
      </g>
      <g
         id="g960"
         transform="translate(109.3674,536.8552)">
        <path
           d="m 0,0 c 0,0 -22.923,4.65 -49.939,-37.811 l 63.085,-43.831 c 0,0 26.52,28.006 -2.605,71.767 l -7.3,6.8 z"
           style="fill:#5582ff;fill-opacity:1;fill-rule:nonzero;stroke:none"
           id="path962" />
      </g>
      <g
         id="g964"
         transform="translate(195.9914,672.7101)">
        <path
           d="m 0,0 c 0.261,-0.053 0.542,-0.088 0.828,-0.088 l 20.301,0.053 c 2.261,0.006 4.093,1.85 4.086,4.117 0,2.268 -1.831,4.093 -4.111,4.099 L 0.803,8.11 C -1.464,8.104 -3.296,6.26 -3.289,3.993 -3.283,2.012 -1.875,0.367 -0.001,-0.019 Z"
           style="fill:#514557;fill-opacity:1;fill-rule:nonzero;stroke:none"
           id="path966" />
      </g>
      <g
         id="g968"
         transform="translate(244.884,671.8754)">
        <path
           d="m 0,0 c 0.268,-0.053 0.547,-0.088 0.823,-0.088 l 12.415,0.035 c 2.267,0 4.099,1.838 4.092,4.111 -0.006,2.268 -1.85,4.099 -4.111,4.093 L 0.81,8.116 C -1.463,8.103 -3.295,6.266 -3.288,3.998 -3.282,2.017 -1.874,0.367 0.001,-0.013 Z"
           style="fill:#514557;fill-opacity:1;fill-rule:nonzero;stroke:none"
           id="path970" />
      </g>
      <g
         id="g972"
         transform="translate(207.2474,619.2799)">
        <path
           d="M 0,0 C 0,0 2.504,-9.817 17.554,-11.051"
           style="fill:none;stroke:#514557;stroke-width:0.171;stroke-linecap:round;stroke-linejoin:round;stroke-miterlimit:10;stroke-dasharray:none;stroke-opacity:1"
           id="path974" />
      </g>
    </g>
  </g>
</svg>
